<svg xmlns="http://www.w3.org/2000/svg" viewBox="65 4.5 302 141"><defs><style>.a{fill:#e31937;}</style></defs><title>CGI_Logo_color_v2</title><path class="a" d="M140.33,32c-27.4,0-44.2,21.4-44.2,43,0,26,21.2,43,44.4,43,15.4,0,30-6.8,42.4-17.8v32.2c-13,7.8-30.8,12.6-44.6,12.6-39.6,0-72.8-32.2-72.8-70,0-40,33.4-70,73-70,15.2,0,33,4.6,44.6,10.4V47C168.53,37.4,153.73,32,140.33,32Z"/><path class="a" d="M267.11,145c-39.8,0-73.4-31-73.4-70,0-39.4,33.4-70,75.2-70,15.2,0,34,4,45.6,9.4V45.8c-13.2-7.6-30.2-13.8-45-13.8-27.4,0-45.2,21.4-45.2,43,0,25.4,21,43.8,45.6,43.8a43.78,43.78,0,0,0,16.6-2.8V90.8h-22.4V64.2h51.2V135A116.82,116.82,0,0,1,267.11,145Z"/><path class="a" d="M337.67,142.2V7.8h28.8V142.2h-28.8Z"/></svg>
