<?xml version="1.0" encoding="utf-8"?>
<!-- Generator: Adobe Illustrator 22.1.0, SVG Export Plug-In . SVG Version: 6.00 Build 0)  -->
<svg version="1.1" id="Layer_1" xmlns="http://www.w3.org/2000/svg" xmlns:xlink="http://www.w3.org/1999/xlink" x="0px" y="0px"
	 viewBox="0 0 160 60" style="enable-background:new 0 0 160 60;" xml:space="preserve">
<style type="text/css">
	.st0{fill:#FFED58;}
</style>
<rect class="st0" width="160" height="60"/>
<g>
	<g>
		<path d="M43.8,23.9c-0.4-1.6-1.3-2.7-2.7-3.4c-0.8-0.3-1.7-0.5-2.7-0.5c-1.9,0-3.5,0.7-4.7,2.2c-1.2,1.4-1.8,3.6-1.8,6.4
			s0.7,4.9,2,6.1c1.3,1.2,2.8,1.8,4.5,1.8c1.6,0,3-0.5,4-1.4c1.1-1,1.7-2.2,2-3.7h-5.5v-4h9.8v12.6h-3.3L45,37.1
			c-1,1.1-1.8,1.9-2.6,2.4c-1.3,0.8-2.9,1.2-4.8,1.2c-3.1,0-5.7-1.1-7.7-3.2c-2.1-2.2-3.1-5.1-3.1-8.9c0-3.8,1.1-6.9,3.2-9.2
			s4.9-3.5,8.3-3.5c3,0,5.4,0.8,7.2,2.3c1.8,1.5,2.8,3.4,3.1,5.7C48.6,23.9,43.8,23.9,43.8,23.9L43.8,23.9z"/>
		<path d="M66.8,37.9c-1.5,1.8-3.7,2.7-6.7,2.7c-3,0-5.2-0.9-6.7-2.7c-1.5-1.8-2.2-4-2.2-6.6c0-2.5,0.7-4.7,2.2-6.5
			c1.5-1.9,3.7-2.7,6.7-2.7c3,0,5.2,0.9,6.7,2.7c1.5,1.9,2.2,4,2.2,6.5C69,33.9,68.2,36.1,66.8,37.9z M63.1,35.4
			c0.7-1,1.1-2.3,1.1-4s-0.3-3.1-1.1-4C62.4,26.4,61.3,26,60,26c-1.3,0-2.4,0.5-3.1,1.4c-0.7,0.9-1.1,2.3-1.1,4c0,1.7,0.3,3.1,1.1,4
			c0.7,1,1.7,1.4,3.1,1.4S62.4,36.3,63.1,35.4z"/>
		<path d="M86.2,37.9c-1.5,1.8-3.7,2.7-6.7,2.7c-3,0-5.2-0.9-6.7-2.7c-1.5-1.8-2.2-4-2.2-6.6c0-2.5,0.7-4.7,2.2-6.5
			c1.5-1.9,3.7-2.7,6.7-2.7c3,0,5.2,0.9,6.7,2.7c1.5,1.9,2.2,4,2.2,6.5C88.4,33.9,87.6,36.1,86.2,37.9z M82.5,35.4
			c0.7-1,1.1-2.3,1.1-4s-0.3-3.1-1.1-4c-0.7-0.9-1.7-1.4-3.1-1.4c-1.3,0-2.4,0.5-3.1,1.4c-0.7,0.9-1.1,2.3-1.1,4
			c0,1.7,0.3,3.1,1.1,4c0.7,1,1.7,1.4,3.1,1.4C80.8,36.8,81.8,36.3,82.5,35.4z"/>
		<path d="M100.3,22.9c0.8,0.5,1.5,1.1,2,1.9v-8.3h4.6V40h-4.4v-2.4c-0.7,1-1.4,1.8-2.2,2.3s-1.9,0.7-3.1,0.7c-2,0-3.7-0.8-5.1-2.5
			S90,34.4,90,31.8c0-3,0.7-5.3,2.1-7c1.4-1.7,3.2-2.6,5.5-2.6C98.6,22.2,99.5,22.5,100.3,22.9L100.3,22.9z M101.4,35.3
			c0.7-1,1-2.2,1-3.7c0-2.1-0.5-3.6-1.6-4.6c-0.7-0.5-1.4-0.8-2.3-0.8c-1.3,0-2.3,0.5-2.9,1.5c-0.6,1-0.9,2.3-0.9,3.7
			c0,1.6,0.3,2.9,1,3.8c0.6,1,1.6,1.4,2.9,1.4C99.8,36.8,100.8,36.3,101.4,35.3L101.4,35.3z"/>
		<path d="M132.6,43.5c-0.2-0.2-0.5-0.7-0.7-1c-0.1-0.2-1.7-3.6-3.2-6.6c1.6-2.5,3.2-4.9,3.3-5c0.3-0.4,0.7-0.7,1.1-0.9l0-0.3
			c-0.7,0-2.5-0.1-2.9,0.4c-0.4,0.5-0.4,0.5-0.8,1.1c-0.1,0.2-0.8,1.2-1.6,2.6c-0.7-1.4-1.1-2.4-1.2-2.5c-0.2-0.6-0.5-1.1-0.9-1.6
			c-0.4-0.5-1-0.8-1.6-1.1c1.3-0.6,2.3-1.4,2.9-2.2c0.6-0.9,0.9-2.1,0.9-3.5c0-2.2-0.7-3.8-2.1-4.7c-1.4-1-3.4-1.4-6-1.4h-9.2v23.5
			l2.2,0V29.6l0,0h7c0.5,0,1.1,0,1.6,0.1c0.5,0,1,0.2,1.4,0.4c0.4,0.2,0.8,0.5,1.1,0.9c0.1,0.2,1.3,2.5,2.6,5c-1.9,3-4,6.4-4.1,6.6
			c-0.2,0.3-0.5,0.8-0.7,1c-0.2,0.2-0.4,0.2-0.5,0.3V44l2.5,0c0.4-0.4,0.7-1,1.1-1.6c0.2-0.3,1.4-2.3,2.8-4.5
			c1.1,2.2,2.1,4.2,2.2,4.5c0.2,0.7,0.7,1.3,1.1,1.6l2.5,0v-0.2C133,43.8,132.8,43.7,132.6,43.5z M123.9,26.5
			c-0.5,0.4-1.1,0.7-1.9,0.8c-0.7,0.2-1.5,0.3-2.3,0.3l0,0h-6.9v-9.1h7.1c0.7,0,1.4,0.1,2.1,0.2c0.7,0.1,1.3,0.3,1.8,0.7
			c0.5,0.3,1,0.8,1.3,1.3c0.3,0.6,0.5,1.3,0.5,2.2c0,0.8-0.1,1.5-0.4,2.1C124.8,25.7,124.4,26.2,123.9,26.5z"/>
	</g>
</g>
</svg>
