<svg id="Ebene_1" data-name="Ebene 1" xmlns="http://www.w3.org/2000/svg" viewBox="0 0 340.16 97.36"><defs><style>.cls-1{fill:#004b87;}.cls-2{fill:#0077c8;}.cls-3{fill:#41b6e6;}.cls-4{fill:#ffce34;}.cls-5{fill:#f47920;}.cls-6{fill:#af272f;}.cls-7{fill:#002b49;}</style></defs><title>logo</title><circle class="cls-1" cx="25.82" cy="26.92" r="6.88"/><circle class="cls-2" cx="46.13" cy="26.92" r="6.88"/><circle class="cls-3" cx="66.45" cy="26.92" r="6.88"/><circle class="cls-4" cx="25.82" cy="47.23" r="6.88"/><circle class="cls-3" cx="66.45" cy="47.23" r="6.88"/><circle class="cls-1" cx="25.82" cy="6.88" r="4.13"/><circle class="cls-2" cx="46.13" cy="6.88" r="5.5"/><circle class="cls-2" cx="66.45" cy="6.88" r="6.88"/><circle class="cls-4" cx="25.82" cy="67.54" r="6.88"/><circle class="cls-5" cx="46.13" cy="67.54" r="6.88"/><circle class="cls-6" cx="66.45" cy="67.54" r="6.88"/><circle class="cls-6" cx="66.45" cy="87.86" r="4.13"/><circle class="cls-5" cx="46.13" cy="87.86" r="5.5"/><circle class="cls-5" cx="25.82" cy="87.86" r="6.88"/><circle class="cls-6" cx="86.76" cy="67.54" r="4.13"/><circle class="cls-3" cx="86.76" cy="47.23" r="5.5"/><circle class="cls-1" cx="5.5" cy="26.92" r="4.13"/><circle class="cls-4" cx="5.5" cy="47.23" r="5.5"/><path class="cls-7" d="M130.46,30.6a26.64,26.64,0,0,1,12,2.85V40a22.85,22.85,0,0,0-11.52-3.26c-3,0-6.18.9-6.18,3.61,0,6.45,20.05,3.47,20.05,15.61,0,7.36-6.8,9.78-14.36,9.78-4.86,0-9.78-1.18-13-3.19V55.93a24.67,24.67,0,0,0,12.7,3.54c4.16,0,7.22-.69,7.22-3.4,0-6.18-20.12-3.61-20.12-15.54C117.21,33.24,123.87,30.6,130.46,30.6Z" transform="translate(0.13 0.19)"/><path class="cls-7" d="M166.34,30.6c13.25,0,17.83,10.69,15.68,20.33H157c.83,6,6.66,8.47,12.77,8.47A24.39,24.39,0,0,0,180.28,57v6.38a28.56,28.56,0,0,1-11.94,2.29c-10.2,0-18.87-5.83-18.87-17.56C149.47,36.08,158.63,30.6,166.34,30.6Zm.35,6.18c-5,0-9.51,3-9.78,8.6h18.46C175.77,42.47,174,36.78,166.68,36.78Z" transform="translate(0.13 0.19)"/><path class="cls-7" d="M220.39,59.54a7.87,7.87,0,0,0,2.22-.42v5.34a13,13,0,0,1-4.72.83c-3.05,0-5.48-1.18-6.66-3.89a19.34,19.34,0,0,1-12.56,4.3c-6,0-11.66-3.33-11.66-10.2,0-8.54,7.91-11.17,14.85-11.17a44.27,44.27,0,0,1,8.67,1V44.13c0-4.16-3.05-7.08-8.74-7.08a29.66,29.66,0,0,0-12,2.57v-6.8a40.8,40.8,0,0,1,12.77-2.22C212,30.6,218,35.11,218,45.17V57.11A2.16,2.16,0,0,0,220.39,59.54ZM194.65,55c0,3.26,2.91,4.93,6.25,4.93a13.54,13.54,0,0,0,9.65-4V50.38a38.88,38.88,0,0,0-7.22-.83C199.09,49.54,194.65,50.86,194.65,55Z" transform="translate(0.13 0.19)"/><path class="cls-7" d="M245.93,30.6c8.4,0,13.74,5.69,13.74,13.6V64.81h-7.42V45.17c0-5.41-3.33-8-7.77-8-4.23,0-7.42,2.84-9.3,5.55V64.81h-7.43V31.5h6.59v4.58A15.21,15.21,0,0,1,245.93,30.6Z" transform="translate(0.13 0.19)"/><path class="cls-7" d="M278.06,19.64V31.5h12.07V38H278.06V53.29c0,4.37,2,5.83,6.31,5.83a17.9,17.9,0,0,0,6.73-1.32v6.38a27.18,27.18,0,0,1-9,1.46c-6.45,0-11.45-3.19-11.45-11V38h-6V31.5h6V21.44Z" transform="translate(0.13 0.19)"/><path class="cls-7" d="M301,25.12c-2.43,0-4.58-1.39-4.58-4.44s2.15-4.37,4.58-4.37a4.18,4.18,0,0,1,4.51,4.37A4.16,4.16,0,0,1,301,25.12Zm-3.75,39.69V31.5h7.43V64.81Z" transform="translate(0.13 0.19)"/><path class="cls-7" d="M325.66,30.6a26.64,26.64,0,0,1,12,2.85V40a22.85,22.85,0,0,0-11.52-3.26c-3,0-6.18.9-6.18,3.61C320,46.77,340,43.78,340,55.93c0,7.36-6.8,9.78-14.36,9.78-4.86,0-9.78-1.18-13-3.19V55.93a24.67,24.67,0,0,0,12.7,3.54c4.16,0,7.22-.69,7.22-3.4,0-6.18-20.12-3.61-20.12-15.54C312.41,33.24,319.07,30.6,325.66,30.6Z" transform="translate(0.13 0.19)"/><path class="cls-7" d="M124.4,93.17H123l-.17-1.42a3.4,3.4,0,0,1-2.93,1.65c-2.43,0-3.8-2.07-3.8-5.23s1.48-5.31,3.95-5.31a3.65,3.65,0,0,1,2.74,1.27V78.83l1.61.19Zm-1.61-2.65v-5a2.88,2.88,0,0,0-2.4-1.36c-1.57,0-2.57,1.32-2.57,4s.88,4,2.4,4A2.91,2.91,0,0,0,122.79,90.53Z" transform="translate(0.13 0.19)"/><path class="cls-7" d="M135.67,92.27l-.38,1.13a2,2,0,0,1-1.88-1.55,3.44,3.44,0,0,1-3,1.55,2.92,2.92,0,0,1-3.18-3c0-2.15,1.61-3.32,4.37-3.32h1.65v-.79c0-1.5-.71-2.07-2.17-2.07a8.47,8.47,0,0,0-2.72.56l-.4-1.19a9.43,9.43,0,0,1,3.41-.69c2.4,0,3.49,1.23,3.49,3.32v4.68C134.83,91.79,135.13,92.08,135.67,92.27Zm-2.45-1.74v-2.4h-1.44c-1.88,0-2.88.71-2.88,2.15a1.68,1.68,0,0,0,1.84,1.9A2.68,2.68,0,0,0,133.22,90.53Z" transform="translate(0.13 0.19)"/><path class="cls-7" d="M141.28,93.4a2.49,2.49,0,0,1-2.66-2.82V84.33h-1.74V83.09h1.74V80.77l1.61-.17v2.49h2.43l-.17,1.25h-2.26v6.17c0,1.05.36,1.55,1.27,1.55a2.55,2.55,0,0,0,1.4-.44l.61,1.11A3.86,3.86,0,0,1,141.28,93.4Z" transform="translate(0.13 0.19)"/><path class="cls-7" d="M152.88,92.27l-.38,1.13a2,2,0,0,1-1.88-1.55,3.44,3.44,0,0,1-3,1.55,2.92,2.92,0,0,1-3.18-3c0-2.15,1.61-3.32,4.37-3.32h1.65v-.79c0-1.5-.71-2.07-2.17-2.07a8.47,8.47,0,0,0-2.72.56l-.4-1.19a9.43,9.43,0,0,1,3.41-.69c2.4,0,3.49,1.23,3.49,3.32v4.68C152,91.79,152.34,92.08,152.88,92.27Zm-2.45-1.74v-2.4H149c-1.88,0-2.88.71-2.88,2.15a1.68,1.68,0,0,0,1.84,1.9A2.68,2.68,0,0,0,150.43,90.53Z" transform="translate(0.13 0.19)"/><path class="cls-7" d="M157.32,92.16a1.24,1.24,0,1,1-1.25-1.23A1.22,1.22,0,0,1,157.32,92.16Z" transform="translate(0.13 0.19)"/><path class="cls-7" d="M172.18,93.17l-1.86-8.63-1.92,8.63h-2.15l-2.4-10.08h1.63l1.9,9,2.07-9h1.8l2,9,1.92-9h1.53l-2.32,10.08Z" transform="translate(0.13 0.19)"/><path class="cls-7" d="M186.26,88.69h-6.5c.17,2.43,1.28,3.39,2.82,3.39a4.29,4.29,0,0,0,2.65-.9l.71,1a5.35,5.35,0,0,1-3.47,1.27c-2.78,0-4.41-2-4.41-5.18s1.57-5.37,4.14-5.37,4.1,1.9,4.1,4.95C186.3,88.15,186.28,88.48,186.26,88.69Zm-1.55-1.34c0-2-.81-3.2-2.47-3.2-1.4,0-2.34,1-2.47,3.35h4.95Z" transform="translate(0.13 0.19)"/><path class="cls-7" d="M197.51,88.11c0,3.18-1.48,5.29-3.93,5.29A3.45,3.45,0,0,1,190.86,92l-.17,1.13h-1.4V79l1.61-.19v5.54a3.47,3.47,0,0,1,2.89-1.51C196.08,82.86,197.51,84.76,197.51,88.11Zm-1.72,0c0-2.89-1-4-2.43-4a3,3,0,0,0-2.45,1.61v5a2.82,2.82,0,0,0,2.32,1.4C194.75,92.12,195.79,90.91,195.79,88.11Z" transform="translate(0.13 0.19)"/><path class="cls-7" d="M202,92.16a1.24,1.24,0,1,1-1.25-1.23A1.22,1.22,0,0,1,202,92.16Z" transform="translate(0.13 0.19)"/><path class="cls-7" d="M217.48,92.23l-.38,1.13a2,2,0,0,1-1.88-1.55,3.44,3.44,0,0,1-3,1.55,2.91,2.91,0,0,1-3.18-3c0-2.15,1.61-3.31,4.37-3.31H215v-.79c0-1.49-.71-2.07-2.16-2.07a8.46,8.46,0,0,0-2.72.56l-.4-1.19a9.41,9.41,0,0,1,3.41-.69c2.39,0,3.49,1.23,3.49,3.31v4.67C216.63,91.75,216.94,92,217.48,92.23ZM215,90.49V88.09h-1.44c-1.88,0-2.87.71-2.87,2.15a1.67,1.67,0,0,0,1.84,1.9A2.68,2.68,0,0,0,215,90.49Z" transform="translate(0.13 0.19)"/><path class="cls-7" d="M228.56,88.07c0,3.08-1.34,5.29-3.93,5.29A3.29,3.29,0,0,1,222,92.17V97l-1.61.19V83.06h1.38l.13,1.4a3.63,3.63,0,0,1,3-1.63C227.49,82.83,228.56,84.87,228.56,88.07Zm-1.72,0c0-2.68-.8-4-2.38-4A3.12,3.12,0,0,0,222,85.72v5A2.72,2.72,0,0,0,224.27,92C225.94,92,226.84,90.77,226.84,88.07Z" transform="translate(0.13 0.19)"/><path class="cls-7" d="M239.88,88.07c0,3.08-1.34,5.29-3.93,5.29a3.29,3.29,0,0,1-2.68-1.19V97l-1.61.19V83.06H233l.13,1.4a3.63,3.63,0,0,1,3-1.63C238.81,82.83,239.88,84.87,239.88,88.07Zm-1.72,0c0-2.68-.8-4-2.38-4a3.12,3.12,0,0,0-2.51,1.61v5A2.72,2.72,0,0,0,235.59,92C237.26,92,238.16,90.77,238.16,88.07Z" transform="translate(0.13 0.19)"/><path class="cls-7" d="M245.16,92a1.72,1.72,0,0,0,.65-.11l.42,1.13a3.28,3.28,0,0,1-1.42.33c-1.23,0-1.93-.73-1.93-2.16V79l1.61-.19V91.18C244.49,91.73,244.67,92,245.16,92Z" transform="translate(0.13 0.19)"/><path class="cls-7" d="M250.49,79.42a1.14,1.14,0,1,1-1.15-1.11A1.09,1.09,0,0,1,250.49,79.42Zm-1.93,13.72V83.06h1.61V93.13Z" transform="translate(0.13 0.19)"/><path class="cls-7" d="M260.54,83.9,259.73,85a3.17,3.17,0,0,0-2.16-.79c-1.65,0-2.7,1.28-2.7,4s1.05,3.83,2.7,3.83a3.36,3.36,0,0,0,2.2-.82l.77,1.09a4.58,4.58,0,0,1-3,1.11c-2.68,0-4.37-1.93-4.37-5.19s1.67-5.34,4.37-5.34A4.42,4.42,0,0,1,260.54,83.9Z" transform="translate(0.13 0.19)"/><path class="cls-7" d="M270.52,92.23l-.38,1.13a2,2,0,0,1-1.88-1.55,3.44,3.44,0,0,1-3,1.55,2.91,2.91,0,0,1-3.18-3c0-2.15,1.61-3.31,4.37-3.31h1.65v-.79c0-1.49-.71-2.07-2.16-2.07a8.46,8.46,0,0,0-2.72.56l-.4-1.19a9.41,9.41,0,0,1,3.41-.69c2.39,0,3.49,1.23,3.49,3.31v4.67C269.67,91.75,270,92,270.52,92.23Zm-2.45-1.74V88.09h-1.44c-1.88,0-2.87.71-2.87,2.15a1.67,1.67,0,0,0,1.84,1.9A2.68,2.68,0,0,0,268.06,90.49Z" transform="translate(0.13 0.19)"/><path class="cls-7" d="M276.13,93.36a2.49,2.49,0,0,1-2.66-2.82V84.3h-1.74V83.06h1.74V80.74l1.61-.17v2.49h2.43l-.17,1.25h-2.26v6.17c0,1.05.36,1.55,1.26,1.55a2.54,2.54,0,0,0,1.4-.44l.61,1.11A3.85,3.85,0,0,1,276.13,93.36Z" transform="translate(0.13 0.19)"/><path class="cls-7" d="M282.14,79.42A1.14,1.14,0,1,1,281,78.31,1.09,1.09,0,0,1,282.14,79.42ZM280.2,93.13V83.06h1.61V93.13Z" transform="translate(0.13 0.19)"/><path class="cls-7" d="M293.67,88.07c0,3.16-1.63,5.29-4.44,5.29s-4.42-2-4.42-5.25,1.63-5.29,4.44-5.29S293.67,84.86,293.67,88.07Zm-7.14,0c0,2.66,1,3.95,2.7,3.95s2.72-1.28,2.72-4-1-3.95-2.7-3.95S286.52,85.41,286.52,88.11Z" transform="translate(0.13 0.19)"/><path class="cls-7" d="M304.24,85.91v7.22h-1.61v-7c0-1.55-.63-2-1.67-2a3.18,3.18,0,0,0-2.68,1.86v7.18h-1.61V83.06H298l.13,1.51a3.84,3.84,0,0,1,3.16-1.74C303.18,82.83,304.24,84,304.24,85.91Z" transform="translate(0.13 0.19)"/><path class="cls-7" d="M313.9,84,313.2,85a4.11,4.11,0,0,0-2.6-.94c-1.19,0-2,.56-2,1.42s.57,1.25,2.24,1.69c2.13.56,3.31,1.36,3.31,3.12,0,2-1.86,3-3.89,3A5.49,5.49,0,0,1,306.53,92l.9-1a4.29,4.29,0,0,0,2.83,1c1.34,0,2.24-.63,2.24-1.57,0-1.11-.52-1.49-2.51-2-2.16-.57-3-1.48-3-2.91s1.51-2.72,3.56-2.72A5.27,5.27,0,0,1,313.9,84Z" transform="translate(0.13 0.19)"/><path class="cls-7" d="M318.36,92.12a1.24,1.24,0,1,1-1.25-1.23A1.22,1.22,0,0,1,318.36,92.12Z" transform="translate(0.13 0.19)"/></svg>