<svg width="165" height="140" xmlns="http://www.w3.org/2000/svg">
 <metadata id="metadata8">image/svg+xml</metadata>
 <defs>
  <clipPath id="clipPath18" clipPathUnits="userSpaceOnUse">
   <path id="path16" d="m0,720l1280,0l0,-720l-1280,0l0,720z"/>
  </clipPath>
  <clipPath id="clipPath510" clipPathUnits="userSpaceOnUse">
   <path id="path508" d="m0,720l1280,0l0,-720l-1280,0l0,720z"/>
  </clipPath>
  <clipPath id="clipPath518" clipPathUnits="userSpaceOnUse">
   <path id="path516" d="m80.333,608.499l52.426,0l0,-23.87l-52.426,0l0,23.87z"/>
  </clipPath>
  <clipPath id="clipPath534" clipPathUnits="userSpaceOnUse">
   <path id="path532" d="m724.334,608.499l93.213,0l0,-23.87l-93.213,0l0,23.87z"/>
  </clipPath>
 </defs>
 <g>
  <title>background</title>
  <rect x="-1" y="-1" width="167" height="142" id="canvas_background" fill="none"/>
 </g>
 <g>
  <title>Layer 1</title>
  <g id="svg_2">
   <g id="g296" transform="matrix(1.3333333,0,0,-1.3333333,0,960) ">
    <path id="path298" d="m94.554101,710.072549c1.045,-0.572 2.892,-1.582 3.936,-2.152c0.429,-0.235 1.126,-0.235 1.555,0l3.936,2.152c0.429,0.232 0.429,0.615 0,0.85l-3.936,2.152c-0.429,0.234 -1.126,0.234 -1.555,0l-3.936,-2.152c-0.431,-0.235 -0.431,-0.618 0,-0.85" fill-rule="nonzero" fill="#518db5"/>
   </g>
   <g id="g300" transform="matrix(1.3333333,0,0,-1.3333333,0,960) ">
    <path id="path302" d="m99.666391,705.922159l0,-4.232c0,-0.491 0.348,-0.698 0.777,-0.461l3.936,2.152c0.43,0.234 0.777,0.822 0.777,1.312l0,4.231c0,0.49 -0.347,0.697 -0.777,0.463c-1.045,-0.572 -2.891,-1.582 -3.936,-2.152c-0.429,-0.235 -0.777,-0.823 -0.777,-1.313" fill-rule="nonzero" fill="#3d647f"/>
   </g>
   <g id="g304" transform="matrix(1.3333333,0,0,-1.3333333,0,960) ">
    <path id="path306" d="m101.084301,699.754159c1.045,-0.572 2.891,-1.58 3.936,-2.152c0.429,-0.235 1.127,-0.235 1.555,0l3.937,2.152c0.428,0.234 0.428,0.615 0,0.85l-3.937,2.152c-0.428,0.234 -1.126,0.234 -1.555,0l-3.936,-2.152c-0.43,-0.235 -0.43,-0.616 0,-0.85" fill-rule="nonzero" fill="#518db5"/>
   </g>
   <g id="g308" transform="matrix(1.3333333,0,0,-1.3333333,0,960) ">
    <path id="path310" d="m106.196701,695.603729l0,-4.232c-0.001,-0.489 0.348,-0.696 0.778,-0.461l3.936,2.152c0.429,0.236 0.777,0.822 0.777,1.312l0,4.233c0,0.488 -0.348,0.695 -0.777,0.461c-1.045,-0.572 -2.891,-1.58 -3.936,-2.152c-0.43,-0.235 -0.778,-0.823 -0.778,-1.313" fill-rule="nonzero" fill="#3d647f"/>
   </g>
   <g id="g312" transform="matrix(1.3333333,0,0,-1.3333333,0,960) ">
    <path id="path314" d="m107.334301,689.222939c1.045,-0.572 2.891,-1.582 3.936,-2.152c0.429,-0.235 1.127,-0.235 1.555,0l3.937,2.152c0.428,0.232 0.428,0.615 0,0.85l-3.937,2.152c-0.428,0.234 -1.126,0.234 -1.555,0l-3.936,-2.152c-0.43,-0.235 -0.43,-0.618 0,-0.85" fill-rule="nonzero" fill="#518db5"/>
   </g>
   <g id="g316" transform="matrix(1.3333333,0,0,-1.3333333,0,960) ">
    <path id="path318" d="m112.446701,685.072549l0,-4.232c-0.001,-0.491 0.348,-0.698 0.778,-0.461l3.936,2.152c0.429,0.234 0.777,0.822 0.777,1.312l0,4.231c0,0.49 -0.348,0.697 -0.777,0.463c-1.045,-0.572 -2.891,-1.582 -3.936,-2.152c-0.43,-0.235 -0.778,-0.823 -0.778,-1.313" fill-rule="nonzero" fill="#3d647f"/>
   </g>
   <g id="g320" transform="matrix(1.3333333,0,0,-1.3333333,0,960) ">
    <path id="path322" d="m96.160501,689.222939c1.045,-0.572 2.892,-1.582 3.936,-2.152c0.429,-0.235 1.127,-0.235 1.556,0l3.936,2.152c0.429,0.232 0.429,0.615 0,0.85l-3.936,2.152c-0.429,0.234 -1.127,0.234 -1.556,0l-3.936,-2.152c-0.43,-0.235 -0.43,-0.618 0,-0.85" fill-rule="nonzero" fill="#518db5"/>
   </g>
   <g id="g324" transform="matrix(1.3333333,0,0,-1.3333333,0,960) ">
    <path id="path326" d="m101.273801,685.072549l0,-4.232c-0.001,-0.491 0.348,-0.698 0.777,-0.461l3.936,2.152c0.43,0.234 0.777,0.822 0.777,1.312l0,4.231c0,0.49 -0.347,0.697 -0.777,0.463c-1.045,-0.572 -2.891,-1.582 -3.936,-2.152c-0.429,-0.235 -0.777,-0.823 -0.777,-1.313" fill-rule="nonzero" fill="#3d647f"/>
   </g>
   <g id="g328" transform="matrix(1.3333333,0,0,-1.3333333,0,960) ">
    <path id="path330" d="m89.834301,699.754159c1.045,-0.572 2.892,-1.58 3.936,-2.152c0.429,-0.235 1.127,-0.235 1.556,0l3.936,2.152c0.429,0.234 0.429,0.615 0,0.85l-3.936,2.152c-0.429,0.234 -1.127,0.234 -1.556,0l-3.936,-2.152c-0.43,-0.235 -0.43,-0.616 0,-0.85" fill-rule="nonzero" fill="#518db5"/>
   </g>
   <g id="g332" transform="matrix(1.3333333,0,0,-1.3333333,0,960) ">
    <path id="path334" d="m94.947601,695.603729l0,-4.232c-0.001,-0.489 0.348,-0.696 0.777,-0.461l3.936,2.152c0.43,0.236 0.777,0.822 0.777,1.312l0,4.233c0,0.488 -0.347,0.695 -0.777,0.461c-1.045,-0.572 -2.891,-1.58 -3.936,-2.152c-0.429,-0.235 -0.777,-0.823 -0.777,-1.313" fill-rule="nonzero" fill="#3d647f"/>
   </g>
   <g id="g336" transform="matrix(1.3333333,0,0,-1.3333333,0,960) ">
    <path id="path338" d="m84.758211,689.222939c1.045,-0.572 2.891,-1.582 3.936,-2.152c0.429,-0.235 1.127,-0.235 1.555,0l3.937,2.152c0.428,0.232 0.428,0.615 0,0.85l-3.937,2.152c-0.428,0.234 -1.126,0.234 -1.555,0l-3.936,-2.152c-0.43,-0.235 -0.43,-0.618 0,-0.85" fill-rule="nonzero" fill="#518db5"/>
   </g>
   <g id="g340" transform="matrix(1.3333333,0,0,-1.3333333,0,960) ">
    <path id="path342" d="m89.870501,685.072549l0,-4.232c-0.001,-0.491 0.348,-0.698 0.778,-0.461l3.936,2.152c0.429,0.234 0.77699,0.822 0.77699,1.312l0,4.231c0,0.49 -0.348,0.697 -0.77699,0.463c-1.045,-0.572 -2.891,-1.582 -3.936,-2.152c-0.43001,-0.235 -0.778,-0.823 -0.778,-1.313" fill-rule="nonzero" fill="#3d647f"/>
   </g>
   <g id="g368" transform="matrix(1.3333333,0,0,-1.3333333,0,960) ">
    <path id="path370" d="m42.914401,682.793249c2.115,1.223 5.543,1.223 7.661,0l12.443,-7.184c0.431,-0.248 0.839,-0.584 1.226,-0.959l14.191,7.756c2.909,1.59 2.909,4.166 0,5.756l-26.639,14.565c-2.907,1.589 -7.622,1.589 -10.529,0l-26.641,-14.565c-2.907,-1.59 -2.907,-4.166 0.001,-5.756c3.812,-2.082 9.198,-5.027 14.463,-7.904c0.429,0.441 0.892,0.824 1.382,1.107l12.442,7.184z" fill-rule="nonzero" fill="#518db5"/>
   </g>
   <g id="g372" transform="matrix(1.3333333,0,0,-1.3333333,0,960) ">
    <path id="path374" d="m81.133211,677.767859c-3.787,-2.07 -9.131,-4.992 -14.363,-7.854c0.051,-0.318 0.078,-0.632 0.078,-0.939l0,-14.369c0,-2.443 -1.713,-5.41 -3.83,-6.631l-12.443,-7.184c-0.403,-0.232 -0.864,-0.406 -1.343,-0.55l-0.001,-14.567c0,-3.314 2.357,-4.711 5.263,-3.121l26.64,14.569c2.907,1.589 5.265,5.566 5.265,8.878l0,28.647c0,3.312 -2.358,4.711 -5.266,3.121" fill-rule="nonzero" fill="#3d647f"/>
   </g>
   <g id="g376" transform="matrix(1.3333333,0,0,-1.3333333,0,960) ">
    <path id="path378" d="m30.472001,647.974839c-2.114,1.221 -3.827,4.188 -3.827,6.631l0,14.369c0,0.258 0.029,0.525 0.066,0.793c-5.338,2.918 -10.828,5.92 -14.695,8.035c-2.908,1.59 -5.266,0.192 -5.266,-3.121l0,-28.639c0,-3.314 2.358,-7.289 5.265,-8.879l26.64,-14.57c2.906,-1.59 5.263,-0.191 5.263,3.121l-0.002,14.629c-0.353,0.125 -0.694,0.27 -1.002,0.447l-12.442,7.184z" fill-rule="nonzero" fill="#273945"/>
   </g>
   <g id="g380" transform="matrix(1.3333333,0,0,-1.3333333,0,960) ">
    <path id="path382" d="m58.904701,652.707249c-2.338,1.277 -6.203,3.391 -8.982,4.908c-0.465,0.256 -0.908,0.496 -1.299,0.711c-1.123,0.613 -2.942,0.613 -4.065,0l-1.316,-0.719l-8.965,-4.9c-1.123,-0.613 -1.123,-1.607 0,-2.223l9.639,-5.269l0.642,-0.352c1.123,-0.613 2.942,-0.613 4.065,0l0.608,0.332l9.674,5.289c1.122,0.616 1.122,1.61 -0.001,2.223" fill-rule="nonzero" fill="#518db5"/>
   </g>
   <g id="g384" transform="matrix(1.3333333,0,0,-1.3333333,0,960) ">
    <path id="path386" d="m42.517901,662.119339c1.121,0.613 2.031,2.148 2.031,3.426l0,1.273l0,9.785c0,1.28 -0.909,1.81901 -2.031,1.205l-9.735,-5.324l-0.546,-0.299c-1.123,-0.613 -2.032,-2.148 -2.032,-3.427l0,-0.901l0,-10.156c0,-1.279 0.91,-1.818 2.032,-1.205c2.279,1.248 6.008,3.285 8.768,4.795c0.544,0.299 1.064,0.582 1.513,0.828" fill-rule="nonzero" fill="#3d647f"/>
   </g>
   <g id="g388" transform="matrix(1.3333333,0,0,-1.3333333,0,960) ">
    <path id="path390" d="m60.914401,672.168249l-0.604,0.33l-9.679,5.293c-1.121,0.613 -2.031,0.076 -2.031,-1.205l0.001,-9.752l0,-1.303c0,-1.279 0.911,-2.814 2.032,-3.427c0.452,-0.247 0.975,-0.534 1.523,-0.832c2.76,-1.51 6.481,-3.543 8.758,-4.79c1.121,-0.611 2.031,-0.074 2.031,1.207l0,10.133l0,0.92c0,1.28 -0.91,2.813 -2.031,3.426" fill-rule="nonzero" fill="#273945"/>
   </g>
  </g>
 </g>
</svg>