<svg width="680" height="130" xmlns="http://www.w3.org/2000/svg">
 <metadata id="metadata8">image/svg+xml</metadata>
 <defs>
  <clipPath id="clipPath18" clipPathUnits="userSpaceOnUse">
   <path id="path16" d="m0,720l1280,0l0,-720l-1280,0l0,720z"/>
  </clipPath>
  <clipPath id="clipPath510" clipPathUnits="userSpaceOnUse">
   <path id="path508" d="m0,720l1280,0l0,-720l-1280,0l0,720z"/>
  </clipPath>
  <clipPath id="clipPath518" clipPathUnits="userSpaceOnUse">
   <path id="path516" d="m80.333,608.499l52.426,0l0,-23.87l-52.426,0l0,23.87z"/>
  </clipPath>
  <clipPath id="clipPath534" clipPathUnits="userSpaceOnUse">
   <path id="path532" d="m724.334,608.499l93.213,0l0,-23.87l-93.213,0l0,23.87z"/>
  </clipPath>
 </defs>
 <g>
  <title>background</title>
  <rect x="-1" y="-1" width="682" height="132" id="canvas_background" fill="none"/>
 </g>
 <g>
  <title>Layer 1</title>
  <g id="svg_5">
   <g id="g124" transform="matrix(1.3333333,0,0,-1.3333333,0,960) ">
    <path id="path126" d="m87.803987,716.822533c1.045,-0.572 2.892,-1.582 3.936,-2.152c0.429,-0.235 1.126,-0.235 1.555,0l3.936,2.152c0.429,0.232 0.429,0.615 0,0.85l-3.936,2.152c-0.429,0.234 -1.126,0.234 -1.555,0l-3.936,-2.152c-0.431,-0.235 -0.431,-0.618 0,-0.85" fill-rule="nonzero" fill="#518db5"/>
   </g>
   <g id="g128" transform="matrix(1.3333333,0,0,-1.3333333,0,960) ">
    <path id="path130" d="m92.916287,712.672133l0,-4.232c0,-0.491 0.348,-0.698 0.777,-0.461l3.936,2.152c0.43,0.234 0.777,0.822 0.777,1.312l0,4.231c0,0.49 -0.347,0.697 -0.777,0.463c-1.045,-0.572 -2.891,-1.582 -3.936,-2.152c-0.429,-0.235 -0.777,-0.823 -0.777,-1.313" fill-rule="nonzero" fill="#3d647f"/>
   </g>
   <g id="g132" transform="matrix(1.3333333,0,0,-1.3333333,0,960) ">
    <path id="path134" d="m94.334317,706.504233c1.045,-0.572 2.891,-1.58 3.936,-2.152c0.429,-0.235 1.127,-0.235 1.555,0l3.937,2.152c0.428,0.234 0.428,0.615 0,0.85l-3.937,2.152c-0.428,0.234 -1.126,0.234 -1.555,0l-3.936,-2.152c-0.43,-0.235 -0.43,-0.616 0,-0.85" fill-rule="nonzero" fill="#518db5"/>
   </g>
   <g id="g136" transform="matrix(1.3333333,0,0,-1.3333333,0,960) ">
    <path id="path138" d="m99.446627,702.353833l0,-4.232c-0.001,-0.489 0.348,-0.696 0.778,-0.461l3.936,2.152c0.429,0.236 0.777,0.822 0.777,1.312l0,4.233c0,0.488 -0.348,0.695 -0.777,0.461c-1.045,-0.572 -2.891,-1.58 -3.936,-2.152c-0.43,-0.235 -0.778,-0.823 -0.778,-1.313" fill-rule="nonzero" fill="#3d647f"/>
   </g>
   <g id="g140" transform="matrix(1.3333333,0,0,-1.3333333,0,960) ">
    <path id="path142" d="m100.584317,695.972933c1.045,-0.572 2.891,-1.582 3.936,-2.152c0.429,-0.235 1.127,-0.235 1.555,0l3.937,2.152c0.428,0.232 0.428,0.615 0,0.85l-3.937,2.152c-0.428,0.234 -1.126,0.234 -1.555,0l-3.936,-2.152c-0.43,-0.235 -0.43,-0.618 0,-0.85" fill-rule="nonzero" fill="#518db5"/>
   </g>
   <g id="g144" transform="matrix(1.3333333,0,0,-1.3333333,0,960) ">
    <path id="path146" d="m105.696627,691.822533l0,-4.232c-0.001,-0.491 0.348,-0.698 0.778,-0.461l3.936,2.152c0.429,0.234 0.777,0.822 0.777,1.312l0,4.231c0,0.49 -0.348,0.697 -0.777,0.463c-1.045,-0.572 -2.891,-1.582 -3.936,-2.152c-0.43,-0.235 -0.778,-0.823 -0.778,-1.313" fill-rule="nonzero" fill="#3d647f"/>
   </g>
   <g id="g148" transform="matrix(1.3333333,0,0,-1.3333333,0,960) ">
    <path id="path150" d="m89.410367,695.972933c1.045,-0.572 2.892,-1.582 3.936,-2.152c0.429,-0.235 1.127,-0.235 1.556,0l3.936,2.152c0.429,0.232 0.429,0.615 0,0.85l-3.936,2.152c-0.429,0.234 -1.127,0.234 -1.556,0l-3.936,-2.152c-0.43,-0.235 -0.43,-0.618 0,-0.85" fill-rule="nonzero" fill="#518db5"/>
   </g>
   <g id="g152" transform="matrix(1.3333333,0,0,-1.3333333,0,960) ">
    <path id="path154" d="m94.523717,691.822533l0,-4.232c-0.001,-0.491 0.348,-0.698 0.777,-0.461l3.936,2.152c0.43,0.234 0.777,0.822 0.777,1.312l0,4.231c0,0.49 -0.347,0.697 -0.777,0.463c-1.045,-0.572 -2.891,-1.582 -3.936,-2.152c-0.429,-0.235 -0.777,-0.823 -0.777,-1.313" fill-rule="nonzero" fill="#3d647f"/>
   </g>
   <g id="g156" transform="matrix(1.3333333,0,0,-1.3333333,0,960) ">
    <path id="path158" d="m83.084317,706.504233c1.045,-0.572 2.892,-1.58 3.936,-2.152c0.429,-0.235 1.127,-0.235 1.556,0l3.936,2.152c0.429,0.234 0.429,0.615 0,0.85l-3.936,2.152c-0.429,0.234 -1.127,0.234 -1.556,0l-3.936,-2.152c-0.43,-0.235 -0.43,-0.616 0,-0.85" fill-rule="nonzero" fill="#518db5"/>
   </g>
   <g id="g160" transform="matrix(1.3333333,0,0,-1.3333333,0,960) ">
    <path id="path162" d="m88.197477,702.353833l0,-4.232c-0.001,-0.489 0.348,-0.696 0.777,-0.461l3.936,2.152c0.43,0.236 0.777,0.822 0.777,1.312l0,4.233c0,0.488 -0.347,0.695 -0.777,0.461c-1.045,-0.572 -2.891,-1.58 -3.936,-2.152c-0.429,-0.235 -0.777,-0.823 -0.777,-1.313" fill-rule="nonzero" fill="#3d647f"/>
   </g>
   <g id="g164" transform="matrix(1.3333333,0,0,-1.3333333,0,960) ">
    <path id="path166" d="m78.008087,695.972933c1.045,-0.572 2.891,-1.582 3.936,-2.152c0.429,-0.235 1.127,-0.235 1.555,0l3.937,2.152c0.428,0.232 0.428,0.615 0,0.85l-3.937,2.152c-0.428,0.234 -1.126,0.234 -1.555,0l-3.936,-2.152c-0.43,-0.235 -0.43,-0.618 0,-0.85" fill-rule="nonzero" fill="#518db5"/>
   </g>
   <g id="g168" transform="matrix(1.3333333,0,0,-1.3333333,0,960) ">
    <path id="path170" d="m83.120397,691.822533l0,-4.232c-0.001,-0.491 0.34799,-0.698 0.778,-0.461l3.936,2.152c0.429,0.234 0.777,0.822 0.777,1.312l0,4.231c0,0.49 -0.348,0.697 -0.777,0.463c-1.045,-0.572 -2.891,-1.582 -3.936,-2.152c-0.43,-0.235 -0.778,-0.823 -0.778,-1.313" fill-rule="nonzero" fill="#3d647f"/>
   </g>
   <g id="g220" transform="matrix(1.3333333,0,0,-1.3333333,0,960) ">
    <path id="path222" d="m36.164277,689.543233c2.115,1.223 5.543,1.223 7.661,0l12.443,-7.184c0.431,-0.248 0.839,-0.584 1.226,-0.959l14.191,7.756c2.909,1.59 2.909,4.166 0,5.756l-26.639,14.565c-2.907,1.589 -7.622,1.589 -10.529,0l-26.641,-14.565c-2.907,-1.59 -2.907,-4.166 0.001,-5.756c3.812,-2.082 9.198,-5.027 14.463,-7.904c0.429,0.441 0.892,0.824 1.382,1.107l12.442,7.184z" fill-rule="nonzero" fill="#518db5"/>
   </g>
   <g id="g224" transform="matrix(1.3333333,0,0,-1.3333333,0,960) ">
    <path id="path226" d="m74.383087,684.517933c-3.787,-2.07 -9.131,-4.992 -14.363,-7.854c0.051,-0.318 0.078,-0.632 0.078,-0.939l0,-14.369c0,-2.443 -1.713,-5.41 -3.83,-6.631l-12.443,-7.184c-0.403,-0.232 -0.864,-0.406 -1.343,-0.55l-0.001,-14.567c0,-3.314 2.357,-4.711 5.263,-3.121l26.64,14.569c2.907,1.589 5.265,5.566 5.265,8.878l0,28.647c0,3.312 -2.358,4.711 -5.266,3.121" fill-rule="nonzero" fill="#3d647f"/>
   </g>
   <g id="g228" transform="matrix(1.3333333,0,0,-1.3333333,0,960) ">
    <path id="path230" d="m23.722017,654.724933c-2.114,1.221 -3.827,4.188 -3.827,6.631l0,14.369c0,0.258 0.029,0.525 0.066,0.793c-5.338,2.918 -10.828,5.92 -14.695,8.035c-2.908,1.59 -5.266,0.192 -5.266,-3.121l0,-28.639c0,-3.314 2.358,-7.289 5.265,-8.879l26.64,-14.57c2.906,-1.59 5.263,-0.191 5.263,3.121l-0.002,14.629c-0.353,0.125 -0.694,0.27 -1.002,0.447l-12.442,7.184z" fill-rule="nonzero" fill="#273945"/>
   </g>
   <g id="g232" transform="matrix(1.3333333,0,0,-1.3333333,0,960) ">
    <path id="path234" d="m52.154577,659.457333c-2.338,1.277 -6.203,3.391 -8.982,4.908c-0.46501,0.256 -0.908,0.496 -1.299,0.711c-1.123,0.613 -2.942,0.613 -4.06501,0l-1.316,-0.719l-8.965,-4.9c-1.123,-0.613 -1.123,-1.607 0,-2.223l9.639,-5.269l0.642,-0.352c1.12301,-0.613 2.94201,-0.613 4.06501,0l0.60799,0.332l9.674,5.289c1.122,0.616 1.122,1.61 -0.00099,2.223" fill-rule="nonzero" fill="#518db5"/>
   </g>
   <g id="g236" transform="matrix(1.3333333,0,0,-1.3333333,0,960) ">
    <path id="path238" d="m35.767917,668.869433c1.121,0.613 2.031,2.148 2.031,3.426l0,1.273l0,9.785c0,1.28 -0.909,1.819 -2.031,1.205l-9.735,-5.324l-0.546,-0.299c-1.123,-0.613 -2.032,-2.148 -2.032,-3.427l0,-0.901l0,-10.156c0,-1.279 0.91,-1.818 2.032,-1.205c2.279,1.248 6.008,3.285 8.768,4.795c0.544,0.299 1.064,0.582 1.513,0.828" fill-rule="nonzero" fill="#3d647f"/>
   </g>
   <g id="g240" transform="matrix(1.3333333,0,0,-1.3333333,0,960) ">
    <path id="path242" d="m54.164277,678.918233l-0.604,0.33l-9.679,5.293c-1.121,0.613 -2.031,0.076 -2.031,-1.205l0.001,-9.752l0,-1.303c0,-1.279 0.911,-2.814 2.032,-3.427c0.452,-0.247 0.975,-0.534 1.523,-0.832c2.76,-1.51 6.481,-3.543 8.758,-4.79c1.121,-0.611 2.031,-0.074 2.031,1.207l0,10.133l0,0.92c0,1.28 -0.91,2.813 -2.031,3.426" fill-rule="nonzero" fill="#273945"/>
   </g>
   <g id="g464" transform="matrix(1.3333333,0,0,-1.3333333,0,960) ">
    <path id="path466" d="m133.525727,689.519833l4.193,0c1.5,0 2.723,-1.217 2.723,-2.723l0,-13.179c0,-1.504 0.852,-1.854 1.904,-0.78l14.459,14.739c1.049,1.074 3.124,1.943 4.629,1.943l6.516,0c1.504,0 1.861,-0.863 0.803,-1.93l-14.764,-14.83c-1.059,-1.066 -1.218,-2.926 -0.352,-4.154l16.662,-23.59c0.868,-1.228 0.352,-2.223 -1.153,-2.223l-5.85,0c-1.504,0 -3.422,1 -4.287,2.229l-12.158,17.367c-0.861,1.231 -2.425,1.369 -3.489,0.309l-0.994,-0.991c-1.064,-1.06 -1.926,-3.138 -1.926,-4.644l0,-11.545c0,-1.506 -1.223,-2.725 -2.723,-2.725l-4.193,0c-1.502,0 -2.723,1.219 -2.723,2.725l0,41.279c0,1.506 1.221,2.723 2.723,2.723" fill-rule="nonzero" fill="#3d647f"/>
   </g>
   <g id="g468" transform="matrix(1.3333333,0,0,-1.3333333,0,960) ">
    <path id="path470" d="m179.244417,646.090133c-3.145,2.725 -4.719,6.639 -4.719,11.734l0,28.973c0,1.506 1.221,2.723 2.723,2.723l4.191,0c1.502,0 2.723,-1.217 2.723,-2.723l0,-28.973c0,-2.441 0.673,-4.425 2.023,-5.947c1.354,-1.525 3.646,-2.287 6.88,-2.287c3.058,0 5.316,0.783 6.779,2.352c1.463,1.568 2.19,3.574 2.19,6.015l0,28.84c0,1.506 1.218,2.723 2.724,2.723l4.191,0c1.505,0 2.723,-1.217 2.723,-2.723l0,-28.973c0,-5.009 -1.54,-8.898 -4.619,-11.664c-3.078,-2.771 -7.676,-4.154 -13.788,-4.154c-6.203,0 -10.876,1.361 -14.021,4.084" fill-rule="nonzero" fill="#3d647f"/>
   </g>
   <g id="g472" transform="matrix(1.3333333,0,0,-1.3333333,0,960) ">
    <path id="path474" d="m230.939667,650.633133l8.374,0c2.346,0 4.175,0.58 5.481,1.734c1.305,1.155 1.959,2.692 1.959,4.606c0,2.223 -0.73,3.898 -2.193,5.031c-1.46,1.135 -3.3,1.701 -5.513,1.701l-8.108,0c-1.505,0 -2.723,-1.218 -2.723,-2.722l0,-7.627c0,-1.504 1.218,-2.723 2.723,-2.723m12.825,21.504c1.285,0.957 1.926,2.351 1.926,4.18c0,0.839 -0.142,1.589 -0.425,2.25c-0.503,1.17 -2.359,2.574 -3.782,2.939c-0.784,0.201 -1.662,0.303 -2.635,0.303l-7.909,0c-1.505,0 -2.723,-1.219 -2.723,-2.725l0,-5.664c0,-1.504 1.218,-2.723 2.723,-2.723l7.71,0c2.125,0 3.829,0.479 5.115,1.44m-22.462,17.383l18.543,0c2.566,0 4.816,-0.295 6.744,-0.883c1.925,-0.588 3.507,-1.428 4.749,-2.516c2.527,-2.222 3.789,-5.142 3.789,-8.756c0,-2.4 -0.675,-4.369 -2.026,-5.916c-0.81,-0.925 -1.784,-1.709 -2.92,-2.345c-1.313,-0.739 -2.497,-1.129 -2.497,-1.186c0,-0.053 1.197,-0.39 2.535,-1.078c1.521,-0.781 2.81,-1.85 3.877,-3.199c1.616,-2.051 2.429,-4.508 2.429,-7.387c0,-2.223 -0.346,-4.105 -1.033,-5.652c-0.683,-1.549 -1.741,-2.91 -3.157,-4.084c-1.373,-1.176 -3.079,-2.092 -5.116,-2.746c-2.037,-0.655 -4.319,-0.979 -6.845,-0.979l-19.072,0c-1.505,0 -2.722,1.219 -2.722,2.725l0,41.279c0,1.506 1.217,2.723 2.722,2.723" fill-rule="nonzero" fill="#3d647f"/>
   </g>
   <g id="g476" transform="matrix(1.3333333,0,0,-1.3333333,0,960) ">
    <path id="path478" d="m264.892917,689.519833l29.508,0c1.504,0 2.722,-1.217 2.722,-2.723l0,-2.527c0,-1.504 -1.218,-2.723 -2.722,-2.723l-19.871,0c-1.504,0 -2.723,-1.216 -2.723,-2.722l0,-5.012c0,-1.506 1.219,-2.725 2.723,-2.725l16.748,0c1.506,0 2.722,-1.216 2.722,-2.722l0,-2.33c0,-1.504 -1.216,-2.723 -2.722,-2.723l-16.748,0c-1.504,0 -2.723,-1.217 -2.723,-2.725l0,-7.162c0,-1.506 1.219,-2.722 2.723,-2.722l20.068,0c1.504,0 2.721,-1.219 2.721,-2.725l0,-2.461c0,-1.506 -1.217,-2.725 -2.721,-2.725l-29.705,0c-1.504,0 -2.723,1.219 -2.723,2.725l0,41.279c0,1.506 1.219,2.723 2.723,2.723" fill-rule="nonzero" fill="#3d647f"/>
   </g>
   <g id="g480" transform="matrix(1.3333333,0,0,-1.3333333,0,960) ">
    <path id="path482" d="m306.392917,645.767933c-2.852,2.168 -4.607,5.09 -5.266,8.764c-0.265,1.478 0.936,2.701 2.442,2.701l3.988,0c1.506,0 2.822,-1.235 3.33,-2.649c0.531,-1.482 1.352,-2.611 2.449,-3.392c1.684,-1.201 4.231,-1.797 7.641,-1.797c1.24,0 2.416,0.105 3.523,0.324c1.108,0.217 2.082,0.569 2.924,1.047c0.842,0.479 1.518,1.102 2.026,1.861c0.509,0.76 0.763,1.686 0.763,2.778c0,1.133 -0.275,2.068 -0.83,2.812c-0.552,0.739 -1.34,1.362 -2.359,1.862c-1.018,0.5 -2.248,0.935 -3.686,1.308c-1.439,0.367 -3.068,0.748 -4.882,1.143c-2.127,0.478 -4.178,1.011 -6.149,1.599c-1.971,0.588 -3.699,1.383 -5.184,2.387c-1.482,1.002 -2.679,2.287 -3.585,3.856c-0.911,1.568 -1.364,3.572 -1.364,6.011c0,2.309 0.453,4.334 1.364,6.08c0.906,1.741 2.169,3.201 3.787,4.377c1.617,1.178 3.529,2.059 5.748,2.649c2.213,0.588 4.652,0.879 7.308,0.879c5.362,0 9.668,-1.241 12.924,-3.725c2.609,-1.988 4.285,-4.707 5.029,-8.15c0.321,-1.471 -0.834,-2.698 -2.336,-2.698l-3.789,0c-1.505,0 -2.793,1.254 -3.42,2.619c-0.5,1.094 -1.242,1.985 -2.23,2.676c-1.682,1.176 -3.766,1.764 -6.244,1.764c-2.615,0 -4.695,-0.5 -6.248,-1.502c-1.551,-1.004 -2.324,-2.332 -2.324,-3.986c0,-0.961 0.211,-1.756 0.63,-2.387c0.42,-0.633 1.063,-1.188 1.928,-1.666c0.867,-0.479 1.936,-0.895 3.223,-1.242c1.285,-0.348 2.81,-0.719 4.586,-1.112c2.435,-0.521 4.726,-1.101 6.875,-1.73c2.15,-0.635 4.031,-1.473 5.648,-2.518c1.617,-1.045 2.891,-2.373 3.823,-3.984c0.929,-1.617 1.394,-3.686 1.394,-6.211c0,-2.352 -0.465,-4.453 -1.394,-6.309c-0.932,-1.849 -2.215,-3.398 -3.854,-4.636c-1.641,-1.241 -3.59,-2.192 -5.848,-2.846c-2.261,-0.648 -4.718,-0.978 -7.377,-0.978c-6.466,0 -11.463,1.339 -14.984,4.021" fill-rule="nonzero" fill="#3d647f"/>
   </g>
   <g id="g484" transform="matrix(1.3333333,0,0,-1.3333333,0,960) ">
    <path id="path486" d="m358.320587,667.430033l7.246,0c2.524,0 4.44,0.631 5.744,1.896c1.307,1.262 1.961,2.961 1.961,5.098c0,2.221 -0.666,3.92 -1.992,5.098c-1.33,1.176 -3.189,1.763 -5.58,1.763l-7.379,0c-1.504,0 -2.721,-1.218 -2.721,-2.724l0,-8.408c0,-1.504 1.217,-2.723 2.721,-2.723m-9.969,22.09l18.145,0c2.791,0 5.203,-0.383 7.238,-1.143c2.039,-0.763 3.768,-1.843 5.186,-3.236c1.328,-1.352 2.369,-2.92 3.125,-4.705c0.752,-1.787 1.13,-3.77 1.13,-5.947c0,-2.221 -0.367,-4.239 -1.101,-6.045c-0.731,-1.809 -1.77,-3.358 -3.121,-4.641c-1.354,-1.285 -3.012,-2.289 -4.983,-3.006c-1.972,-0.719 -4.199,-1.08 -6.679,-1.08l-8.971,0c-1.504,0 -2.721,-1.219 -2.721,-2.723l0,-11.476c0,-1.506 -1.218,-2.725 -2.724,-2.725l-4.524,0c-1.502,0 -2.722,1.219 -2.722,2.725l0,41.279c0,1.506 1.22,2.723 2.722,2.723" fill-rule="nonzero" fill="#3d647f"/>
   </g>
   <g id="g488" transform="matrix(1.3333333,0,0,-1.3333333,0,960) ">
    <path id="path490" d="m400.314667,668.867533l7.51,0c2.658,0 4.627,0.6 5.914,1.799c1.285,1.197 1.926,2.734 1.926,4.605c0,1.918 -0.62,3.498 -1.86,4.739c-1.24,1.242 -3.144,1.861 -5.713,1.861l-7.777,0c-1.504,0 -2.721,-1.217 -2.721,-2.723l0,-7.556c0,-1.506 1.217,-2.725 2.721,-2.725m-9.635,20.652l19.071,0c2.304,0 4.398,-0.316 6.281,-0.949c1.883,-0.631 3.488,-1.514 4.816,-2.646c1.328,-1.133 2.358,-2.494 3.09,-4.084c0.732,-1.59 1.098,-3.368 1.098,-5.327c0,-2.744 -0.688,-5.107 -2.061,-7.089c-0.955,-1.381 -2.316,-2.479 -4.086,-3.297c-1.361,-0.633 -2.558,-0.963 -2.558,-1.016c0,-0.053 1.201,-0.387 2.519,-1.109c0.996,-0.545 1.83,-1.223 2.498,-2.03c1.174,-1.416 1.912,-3.537 2.227,-6.373c0.174,-1.654 0.297,-3.189 0.363,-4.605c0.066,-1.414 0.141,-2.732 0.203,-3.826c0.029,-0.533 0.016,-0.967 0.016,-1.688c0,-1.64 -1.203,-2.687 -2.656,-2.687l-3.125,0c-1.504,0 -2.641,0.047 -3.012,2.719c-0.043,0.316 -0.092,0.65 -0.129,1.005c-0.111,1.004 -0.211,2.112 -0.303,3.334c-0.086,1.217 -0.174,2.461 -0.262,3.723c-0.222,2.574 -1.076,4.541 -2.56,5.914c-1.484,1.373 -3.732,2.059 -6.742,2.059l-5.053,0c-1.504,0 -2.721,-1.219 -2.721,-2.723l0,-13.307c0,-1.505 -1.218,-2.724 -2.724,-2.724l-4.19,0c-1.506,0 -2.724,1.219 -2.724,2.724l0,41.28c0,1.506 1.218,2.722 2.724,2.722" fill-rule="nonzero" fill="#3d647f"/>
   </g>
   <g id="g492" transform="matrix(1.3333333,0,0,-1.3333333,0,960) ">
    <path id="path494" d="m445.963227,659.976833l7.113,0c1.504,0 2.358,1.166 1.903,2.598l-3.432,10.867c-0.223,0.609 -0.434,1.33 -0.633,2.158c-0.197,0.826 -0.408,1.611 -0.629,2.352c-0.115,0.439 -0.226,0.886 -0.338,1.338c-0.183,0.742 -0.582,0.767 -0.814,0.021c-0.143,-0.459 -0.266,-0.912 -0.377,-1.359c-0.221,-0.741 -0.432,-1.526 -0.631,-2.352c-0.199,-0.828 -0.41,-1.549 -0.633,-2.158l-3.431,-10.867c-0.453,-1.432 0.398,-2.598 1.902,-2.598m1.396,29.543l4.524,0c1.5,0 3.133,-1.148 3.639,-2.563l14.906,-41.599c0.512,-1.416 -0.297,-2.565 -1.803,-2.565l-4.588,0c-1.5,0 -3.095,1.161 -3.554,2.59l-1.524,4.75c-0.461,1.432 -2.051,2.596 -3.557,2.596l-11.697,0c-1.502,0 -3.086,-1.164 -3.539,-2.602l-1.492,-4.738c-0.447,-1.435 -2.033,-2.596 -3.539,-2.596l-4.32,0c-1.504,0 -2.317,1.149 -1.815,2.565l14.727,41.596c0.504,1.418 2.131,2.566 3.632,2.566" fill-rule="nonzero" fill="#3d647f"/>
   </g>
   <g id="g496" transform="matrix(1.3333333,0,0,-1.3333333,0,960) ">
    <path id="path498" d="m480.463227,663.215133l-13.184,23.92c-0.722,1.318 -0.095,2.385 1.411,2.385l5.052,0c1.504,0 3.283,-1.082 3.975,-2.416l5.926,-11.438c0.353,-0.742 0.715,-1.496 1.095,-2.256c0.375,-0.763 0.719,-1.47 1.028,-2.125c0.176,-0.384 0.343,-0.761 0.506,-1.136c0.277,-0.635 0.808,-0.668 1.132,-0.034c0.198,0.385 0.377,0.774 0.559,1.17c0.307,0.655 0.648,1.362 1.027,2.125c0.377,0.76 0.743,1.514 1.098,2.256l5.809,11.426c0.683,1.34 2.453,2.428 3.955,2.428l4.656,0c1.506,0 2.133,-1.067 1.41,-2.385l-13.189,-23.92c-0.723,-1.316 -1.313,-3.605 -1.313,-5.109l0,-12.588c0,-1.506 -1.221,-2.725 -2.724,-2.725l-4.188,0c-1.504,0 -2.723,1.219 -2.723,2.725l0,12.588c0,1.504 -0.588,3.793 -1.318,5.109" fill-rule="nonzero" fill="#3d647f"/>
   </g>
  </g>
 </g>
</svg>