<svg width="700" height="195" xmlns="http://www.w3.org/2000/svg">
 <metadata id="metadata8">image/svg+xml</metadata>
 <defs>
  <clipPath id="clipPath18" clipPathUnits="userSpaceOnUse">
   <path id="path16" d="m0,720l1280,0l0,-720l-1280,0l0,720z"/>
  </clipPath>
  <clipPath id="clipPath510" clipPathUnits="userSpaceOnUse">
   <path id="path508" d="m0,720l1280,0l0,-720l-1280,0l0,720z"/>
  </clipPath>
  <clipPath id="clipPath518" clipPathUnits="userSpaceOnUse">
   <path id="path516" d="m80.333,608.499l52.426,0l0,-23.87l-52.426,0l0,23.87z"/>
  </clipPath>
  <clipPath id="clipPath534" clipPathUnits="userSpaceOnUse">
   <path id="path532" d="m724.334,608.499l93.213,0l0,-23.87l-93.213,0l0,23.87z"/>
  </clipPath>
 </defs>
 <g>
  <title>background</title>
  <rect x="-1" y="-1" width="702" height="197" id="canvas_background" fill="none"/>
 </g>
 <g>
  <title>Layer 1</title>
  <g id="svg_3">
   <g id="g20" transform="matrix(1.3333333,0,0,-1.3333333,0,960) ">
    <path id="path22" d="m120.688001,602.723581l-43.031,-24.842c-6.374,-3.68 -16.707,-3.68 -23.082,0l-43.033,24.842c-6.375,3.68 -11.542,12.631 -11.542,19.992l0,49.688c0,7.358 5.167,16.312 11.542,19.992l43.033,24.843c6.375,3.682 16.708,3.682 23.082,0l43.031,-24.843c6.374,-3.68 11.541,-12.634 11.541,-19.992l0,-49.688c0,-7.361 -5.167,-16.312 -11.541,-19.992" fill-rule="nonzero" fill="#3d647f"/>
   </g>
   <g id="g28" transform="matrix(1.3333333,0,0,-1.3333333,0,960) ">
    <path id="path30" d="m99.737811,687.968781c1.045,-0.571 2.892,-1.581 3.936,-2.151c0.429,-0.235 1.126,-0.235 1.555,0l3.936,2.151c0.429,0.234 0.429,0.615 0,0.85l-3.936,2.152c-0.429,0.234 -1.126,0.234 -1.555,0l-3.936,-2.152c-0.431,-0.235 -0.431,-0.61599 0,-0.85" fill-rule="nonzero" fill="#ffffff"/>
   </g>
   <g id="g32" transform="matrix(1.3333333,0,0,-1.3333333,0,960) ">
    <path id="path34" d="m104.850111,683.818881l0,-4.232c0,-0.49 0.348,-0.697 0.777,-0.461l3.936,2.152c0.43,0.235 0.777,0.822 0.777,1.312l0,4.232c0,0.489 -0.347,0.696 -0.777,0.461c-1.045,-0.571 -2.891,-1.58 -3.936,-2.152c-0.429,-0.234 -0.777,-0.822 -0.777,-1.312" fill-rule="nonzero" fill="#ffffff"/>
   </g>
   <g id="g36" transform="matrix(1.3333333,0,0,-1.3333333,0,960) ">
    <path id="path38" d="m106.268141,677.650881c1.045,-0.571 2.891,-1.581 3.936,-2.151c0.429,-0.235 1.127,-0.235 1.555,0l3.937,2.151c0.428,0.234 0.428,0.615 0,0.85l-3.937,2.152c-0.428,0.234 -1.126,0.234 -1.555,0l-3.936,-2.152c-0.43,-0.235 -0.43,-0.616 0,-0.85" fill-rule="nonzero" fill="#ffffff"/>
   </g>
   <g id="g40" transform="matrix(1.3333333,0,0,-1.3333333,0,960) ">
    <path id="path42" d="m111.380451,673.500981l0,-4.232c-0.001,-0.49 0.348,-0.697 0.778,-0.461l3.936,2.152c0.429,0.235 0.777,0.822 0.777,1.312l0,4.232c0,0.489 -0.348,0.696 -0.777,0.461c-1.045,-0.571 -2.891,-1.58 -3.936,-2.152c-0.43,-0.234 -0.778,-0.822 -0.778,-1.312" fill-rule="nonzero" fill="#ffffff"/>
   </g>
   <g id="g44" transform="matrix(1.3333333,0,0,-1.3333333,0,960) ">
    <path id="path46" d="m112.518141,667.119181c1.045,-0.571 2.891,-1.581 3.936,-2.151c0.429,-0.235 1.127,-0.235 1.555,0l3.937,2.151c0.428,0.234 0.428,0.615 0,0.85l-3.937,2.152c-0.428,0.234 -1.126,0.234 -1.555,0l-3.936,-2.152c-0.43,-0.235 -0.43,-0.616 0,-0.85" fill-rule="nonzero" fill="#ffffff"/>
   </g>
   <g id="g48" transform="matrix(1.3333333,0,0,-1.3333333,0,960) ">
    <path id="path50" d="m117.630451,662.969301l0,-4.232c-0.001,-0.49 0.348,-0.697 0.778,-0.461l3.936,2.152c0.429,0.235 0.777,0.822 0.777,1.312l0,4.232c0,0.489 -0.348,0.696 -0.777,0.461c-1.045,-0.571 -2.891,-1.58 -3.936,-2.152c-0.43,-0.234 -0.778,-0.822 -0.778,-1.312" fill-rule="nonzero" fill="#ffffff"/>
   </g>
   <g id="g52" transform="matrix(1.3333333,0,0,-1.3333333,0,960) ">
    <path id="path54" d="m101.344191,667.119181c1.045,-0.571 2.892,-1.581 3.936,-2.151c0.429,-0.235 1.127,-0.235 1.556,0l3.936,2.151c0.429,0.234 0.429,0.615 0,0.85l-3.936,2.152c-0.429,0.234 -1.127,0.234 -1.556,0l-3.936,-2.152c-0.43,-0.235 -0.43,-0.616 0,-0.85" fill-rule="nonzero" fill="#ffffff"/>
   </g>
   <g id="g56" transform="matrix(1.3333333,0,0,-1.3333333,0,960) ">
    <path id="path58" d="m106.457541,662.969301l0,-4.232c-0.001,-0.49 0.348,-0.697 0.777,-0.461l3.936,2.152c0.43,0.235 0.777,0.822 0.777,1.312l0,4.232c0,0.489 -0.347,0.696 -0.777,0.461c-1.045,-0.571 -2.891,-1.58 -3.936,-2.152c-0.429,-0.234 -0.777,-0.822 -0.777,-1.312" fill-rule="nonzero" fill="#ffffff"/>
   </g>
   <g id="g60" transform="matrix(1.3333333,0,0,-1.3333333,0,960) ">
    <path id="path62" d="m95.018141,677.650881c1.045,-0.571 2.892,-1.581 3.936,-2.151c0.429,-0.235 1.127,-0.235 1.556,0l3.936,2.151c0.429,0.234 0.429,0.615 0,0.85l-3.936,2.152c-0.429,0.234 -1.127,0.234 -1.556,0l-3.936,-2.152c-0.43,-0.235 -0.43,-0.616 0,-0.85" fill-rule="nonzero" fill="#ffffff"/>
   </g>
   <g id="g64" transform="matrix(1.3333333,0,0,-1.3333333,0,960) ">
    <path id="path66" d="m100.131301,673.500981l0,-4.232c-0.001,-0.49 0.348,-0.697 0.777,-0.461l3.936,2.152c0.43,0.235 0.777,0.822 0.777,1.312l0,4.232c0,0.489 -0.347,0.696 -0.777,0.461c-1.045,-0.571 -2.891,-1.58 -3.936,-2.152c-0.429,-0.234 -0.777,-0.822 -0.777,-1.312" fill-rule="nonzero" fill="#ffffff"/>
   </g>
   <g id="g68" transform="matrix(1.3333333,0,0,-1.3333333,0,960) ">
    <path id="path70" d="m89.941911,667.119181c1.045,-0.571 2.891,-1.581 3.936,-2.151c0.429,-0.235 1.127,-0.235 1.555,0l3.937,2.151c0.428,0.234 0.428,0.615 0,0.85l-3.937,2.152c-0.428,0.234 -1.126,0.234 -1.555,0l-3.936,-2.152c-0.43,-0.235 -0.43,-0.616 0,-0.85" fill-rule="nonzero" fill="#ffffff"/>
   </g>
   <g id="g72" transform="matrix(1.3333333,0,0,-1.3333333,0,960) ">
    <path id="path74" d="m95.054221,662.969301l0,-4.232c-0.001,-0.49 0.34799,-0.697 0.778,-0.461l3.936,2.152c0.429,0.235 0.777,0.822 0.777,1.312l0,4.232c0,0.489 -0.348,0.696 -0.777,0.461c-1.045,-0.571 -2.891,-1.58 -3.936,-2.152c-0.43,-0.234 -0.778,-0.822 -0.778,-1.312" fill-rule="nonzero" fill="#ffffff"/>
   </g>
   <g id="g172" transform="matrix(1.3333333,0,0,-1.3333333,0,960) ">
    <path id="path174" d="m48.098101,660.689491c2.115,1.223 5.543,1.223 7.661,0l12.443,-7.183c0.431,-0.249 0.839,-0.585 1.226,-0.96l14.191,7.757c2.909,1.589 2.909,4.166 0,5.756l-26.639,14.565c-2.907,1.59 -7.622,1.59 -10.529,0l-26.641,-14.565c-2.907,-1.59 -2.907,-4.166 0.001,-5.755c3.812,-2.084 9.198,-5.028 14.463,-7.905c0.429,0.441 0.892,0.825 1.382,1.107l12.442,7.183z" fill-rule="nonzero" fill="#ffffff"/>
   </g>
   <g id="g176" transform="matrix(1.3333333,0,0,-1.3333333,0,960) ">
    <path id="path178" d="m86.316911,655.665101c-3.787,-2.071 -9.131,-4.993 -14.363,-7.85399c0.051,-0.31901 0.078,-0.633 0.078,-0.94l0,-14.368c0,-2.44401 -1.713,-5.411 -3.83,-6.632l-12.443,-7.183c-0.403,-0.233 -0.864,-0.407 -1.343,-0.551l-0.001,-14.567c0,-3.313 2.357,-4.711 5.263,-3.121l26.64,14.57c2.907,1.589 5.265,5.565 5.265,8.878l0,28.646c0,3.314 -2.358,4.711 -5.266,3.122" fill-rule="nonzero" fill="#ffffff"/>
   </g>
   <g id="g180" transform="matrix(1.3333333,0,0,-1.3333333,0,960) ">
    <path id="path182" d="m35.655841,625.871101c-2.114,1.221 -3.827,4.188 -3.827,6.632l0,14.368c0,0.259 0.029,0.526 0.066,0.794c-5.338,2.918 -10.828,5.92 -14.695,8.035c-2.908,1.589 -5.266,0.192 -5.266,-3.122l0,-28.638c0,-3.314 2.358,-7.289 5.265,-8.879l26.64,-14.569c2.906,-1.59 5.263,-0.193 5.263,3.121l-0.002,14.627c-0.353,0.126 -0.694,0.27 -1.002,0.448l-12.442,7.183z" fill-rule="nonzero" fill="#ffffff"/>
   </g>
   <g id="g184" transform="matrix(1.3333333,0,0,-1.3333333,0,960) ">
    <path id="path186" d="m64.088401,630.603491c-2.338,1.278 -6.203,3.392 -8.982,4.91c-0.46501,0.254 -0.908,0.496 -1.299,0.71c-1.123,0.613 -2.942,0.613 -4.06501,0l-1.316,-0.72l-8.965,-4.9c-1.123,-0.613 -1.123,-1.607 0,-2.221l9.639,-5.27l0.642,-0.352c1.12301,-0.614 2.94201,-0.614 4.06501,0l0.60799,0.333l9.674,5.289c1.122,0.614 1.122,1.608 -0.00099,2.221" fill-rule="nonzero" fill="#ffffff"/>
   </g>
   <g id="g188" transform="matrix(1.3333333,0,0,-1.3333333,0,960) ">
    <path id="path190" d="m47.701741,640.016091c1.121,0.614 2.031,2.148 2.031,3.427l0,1.273l0,9.785c0,1.278 -0.909,1.818 -2.031,1.204l-9.735,-5.324l-0.546,-0.299c-1.123,-0.613 -2.032,-2.148 -2.032,-3.427l0,-0.9l0,-10.156c0,-1.279 0.91,-1.819 2.032,-1.205c2.279,1.247 6.008,3.285 8.768,4.795c0.544,0.297 1.064,0.581 1.513,0.827" fill-rule="nonzero" fill="#ffffff"/>
   </g>
   <g id="g192" transform="matrix(1.3333333,0,0,-1.3333333,0,960) ">
    <path id="path194" d="m66.098101,650.065891l-0.604,0.33l-9.679,5.293c-1.121,0.613 -2.031,0.075 -2.031,-1.205l0.001,-9.753l0,-1.302c0,-1.279 0.911,-2.814 2.032,-3.428c0.452,-0.247 0.975,-0.533 1.523,-0.833c2.76,-1.508 6.481,-3.542 8.758,-4.788c1.121,-0.612 2.031,-0.074 2.031,1.206l0,10.133l0,0.92c0,1.279 -0.91,2.813 -2.031,3.427" fill-rule="nonzero" fill="#ffffff"/>
   </g>
   <g id="g392" transform="matrix(1.3333333,0,0,-1.3333333,0,960) ">
    <path id="path394" d="m148.459551,672.666481l4.193,0c1.5,0 2.723,-1.217 2.723,-2.723l0,-13.178c0,-1.506 0.852,-1.854 1.904,-0.78l14.459,14.738c1.049,1.074 3.124,1.943 4.629,1.943l6.516,0c1.504,0 1.861,-0.863 0.803,-1.93l-14.764,-14.83c-1.059,-1.067 -1.218,-2.926 -0.352,-4.154l16.662,-23.589c0.868,-1.228 0.352,-2.223 -1.153,-2.223l-5.85,0c-1.504,0 -3.422,1 -4.287,2.229l-12.158,17.366c-0.861,1.231 -2.425,1.369 -3.489,0.308l-0.994,-0.989c-1.064,-1.06 -1.926,-3.139 -1.926,-4.645l0,-11.545c0,-1.506 -1.223,-2.724 -2.723,-2.724l-4.193,0c-1.502,0 -2.723,1.218 -2.723,2.724l0,41.279c0,1.506 1.221,2.723 2.723,2.723" fill-rule="nonzero" fill="#3d647f"/>
   </g>
   <g id="g396" transform="matrix(1.3333333,0,0,-1.3333333,0,960) ">
    <path id="path398" d="m194.178241,629.237801c-3.145,2.724 -4.719,6.638 -4.719,11.733l0,28.973c0,1.505 1.221,2.723 2.723,2.723l4.191,0c1.502,0 2.723,-1.218 2.723,-2.723l0,-28.973c0,-2.441 0.673,-4.425 2.023,-5.946c1.354,-1.526 3.646,-2.287 6.88,-2.287c3.058,0 5.316,0.782 6.779,2.351c1.463,1.568 2.19,3.573 2.19,6.015l0,28.84c0,1.505 1.218,2.723 2.724,2.723l4.191,0c1.505,0 2.723,-1.218 2.723,-2.723l0,-28.973c0,-5.01 -1.54,-8.898 -4.619,-11.664c-3.078,-2.77 -7.676,-4.153 -13.788,-4.153c-6.203,0 -10.876,1.361 -14.021,4.084" fill-rule="nonzero" fill="#3d647f"/>
   </g>
   <g id="g400" transform="matrix(1.3333333,0,0,-1.3333333,0,960) ">
    <path id="path402" d="m245.873491,633.780281l8.374,0c2.346,0 4.175,0.58 5.481,1.733c1.305,1.155 1.959,2.692 1.959,4.606c0,2.224 -0.73,3.899 -2.193,5.033c-1.46,1.133 -3.3,1.699 -5.513,1.699l-8.108,0c-1.505,0 -2.723,-1.217 -2.723,-2.721l0,-7.627c0,-1.505 1.218,-2.723 2.723,-2.723m12.825,21.503c1.285,0.958 1.926,2.351 1.926,4.181c0,0.84 -0.142,1.59 -0.425,2.249c-0.503,1.171 -2.359,2.575 -3.782,2.939c-0.784,0.202 -1.662,0.303 -2.635,0.303l-7.909,0c-1.505,0 -2.723,-1.217 -2.723,-2.723l0,-5.664c0,-1.505 1.218,-2.723 2.723,-2.723l7.71,0c2.125,0 3.829,0.478 5.115,1.438m-22.462,17.383l18.543,0c2.566,0 4.816,-0.295 6.744,-0.882c1.925,-0.588 3.507,-1.428 4.749,-2.516c2.527,-2.223 3.79,-5.143 3.79,-8.757c0,-2.398 -0.675,-4.369 -2.027,-5.914c-0.81,-0.927 -1.784,-1.71 -2.92,-2.347c-1.313,-0.737 -2.497,-1.128 -2.497,-1.184c0,-0.053 1.197,-0.391 2.535,-1.08c1.521,-0.781 2.81,-1.848 3.878,-3.199c1.615,-2.051 2.428,-4.508 2.428,-7.386c0,-2.223 -0.346,-4.105 -1.033,-5.653c-0.682,-1.548 -1.74,-2.909 -3.157,-4.084c-1.373,-1.176 -3.079,-2.091 -5.116,-2.745c-2.037,-0.654 -4.319,-0.979 -6.845,-0.979l-19.072,0c-1.505,0 -2.722,1.218 -2.722,2.724l0,41.28c0,1.505 1.217,2.722 2.722,2.722" fill-rule="nonzero" fill="#3d647f"/>
   </g>
   <g id="g404" transform="matrix(1.3333333,0,0,-1.3333333,0,960) ">
    <path id="path406" d="m279.826741,672.666481l29.508,0c1.504,0 2.722,-1.217 2.722,-2.723l0,-2.526c0,-1.505 -1.218,-2.723 -2.722,-2.723l-19.871,0c-1.504,0 -2.723,-1.218 -2.723,-2.723l0,-5.012c0,-1.505 1.219,-2.724 2.723,-2.724l16.748,0c1.506,0 2.722,-1.217 2.722,-2.722l0,-2.33c0,-1.505 -1.216,-2.723 -2.722,-2.723l-16.748,0c-1.504,0 -2.723,-1.218 -2.723,-2.725l0,-7.163c0,-1.505 1.219,-2.723 2.723,-2.723l20.068,0c1.504,0 2.721,-1.218 2.721,-2.723l0,-2.462c0,-1.506 -1.217,-2.724 -2.721,-2.724l-29.705,0c-1.504,0 -2.723,1.218 -2.723,2.724l0,41.279c0,1.506 1.219,2.723 2.723,2.723" fill-rule="nonzero" fill="#3d647f"/>
   </g>
   <g id="g408" transform="matrix(1.3333333,0,0,-1.3333333,0,960) ">
    <path id="path410" d="m321.326741,628.914101c-2.852,2.169 -4.607,5.09 -5.266,8.764c-0.265,1.479 0.936,2.702 2.442,2.702l3.988,0c1.506,0 2.822,-1.234 3.33,-2.649c0.531,-1.483 1.352,-2.611 2.449,-3.392c1.684,-1.202 4.231,-1.798 7.641,-1.798c1.24,0 2.416,0.106 3.523,0.325c1.108,0.217 2.082,0.569 2.924,1.047c0.842,0.479 1.518,1.101 2.026,1.861c0.509,0.761 0.763,1.686 0.763,2.777c0,1.133 -0.275,2.069 -0.83,2.813c-0.552,0.739 -1.34,1.362 -2.359,1.862c-1.018,0.5 -2.248,0.935 -3.686,1.308c-1.439,0.368 -3.068,0.748 -4.882,1.142c-2.127,0.479 -4.178,1.013 -6.149,1.601c-1.971,0.587 -3.699,1.383 -5.184,2.386c-1.482,1.001 -2.679,2.287 -3.585,3.855c-0.911,1.569 -1.364,3.572 -1.364,6.012c0,2.308 0.453,4.335 1.364,6.08c0.906,1.741 2.169,3.201 3.787,4.377c1.617,1.177 3.529,2.058 5.748,2.648c2.213,0.588 4.652,0.88 7.308,0.88c5.362,0 9.668,-1.242 12.924,-3.726c2.609,-1.988 4.285,-4.706 5.029,-8.149c0.321,-1.472 -0.834,-2.697 -2.336,-2.697l-3.789,0c-1.505,0 -2.793,1.253 -3.42,2.619c-0.5,1.093 -1.242,1.984 -2.23,2.675c-1.682,1.176 -3.766,1.763 -6.244,1.763c-2.615,0 -4.695,-0.5 -6.248,-1.502c-1.551,-1.003 -2.324,-2.332 -2.324,-3.986c0,-0.96 0.211,-1.756 0.63,-2.386c0.42,-0.633 1.063,-1.189 1.928,-1.667c0.867,-0.478 1.936,-0.894 3.223,-1.242c1.285,-0.348 2.81,-0.718 4.586,-1.112c2.435,-0.521 4.726,-1.1 6.875,-1.73c2.15,-0.633 4.031,-1.471 5.648,-2.516c1.617,-1.046 2.891,-2.374 3.823,-3.986c0.929,-1.616 1.394,-3.684 1.394,-6.21c0,-2.352 -0.465,-4.453 -1.394,-6.308c-0.932,-1.851 -2.215,-3.399 -3.854,-4.638c-1.641,-1.239 -3.59,-2.192 -5.848,-2.845c-2.261,-0.649 -4.718,-0.979 -7.377,-0.979c-6.466,0 -11.463,1.34 -14.984,4.021" fill-rule="nonzero" fill="#3d647f"/>
   </g>
   <g id="g412" transform="matrix(1.3333333,0,0,-1.3333333,0,960) ">
    <path id="path414" d="m373.254411,650.577181l7.246,0c2.524,0 4.44,0.63 5.744,1.896c1.307,1.263 1.961,2.962 1.961,5.098c0,2.22 -0.666,3.92 -1.992,5.097c-1.33,1.176 -3.189,1.763 -5.58,1.763l-7.379,0c-1.504,0 -2.721,-1.217 -2.721,-2.723l0,-8.408c0,-1.505 1.217,-2.723 2.721,-2.723m-9.969,22.089l18.145,0c2.791,0 5.203,-0.382 7.238,-1.142c2.039,-0.764 3.768,-1.844 5.186,-3.237c1.328,-1.351 2.369,-2.919 3.125,-4.704c0.752,-1.787 1.13,-3.771 1.13,-5.948c0,-2.221 -0.367,-4.237 -1.101,-6.045c-0.731,-1.808 -1.77,-3.356 -3.121,-4.64c-1.354,-1.285 -3.012,-2.289 -4.983,-3.006c-1.972,-0.719 -4.199,-1.08 -6.679,-1.08l-8.971,0c-1.504,0 -2.721,-1.218 -2.721,-2.724l0,-11.476c0,-1.505 -1.218,-2.724 -2.724,-2.724l-4.524,0c-1.502,0 -2.722,1.219 -2.722,2.724l0,41.28c0,1.505 1.22,2.722 2.722,2.722" fill-rule="nonzero" fill="#3d647f"/>
   </g>
   <g id="g416" transform="matrix(1.3333333,0,0,-1.3333333,0,960) ">
    <path id="path418" d="m415.248491,652.015201l7.51,0c2.658,0 4.627,0.599 5.914,1.798c1.285,1.197 1.926,2.734 1.926,4.606c0,1.917 -0.62,3.497 -1.86,4.738c-1.24,1.242 -3.144,1.862 -5.713,1.862l-7.777,0c-1.504,0 -2.721,-1.218 -2.721,-2.723l0,-7.557c0,-1.505 1.217,-2.724 2.721,-2.724m-9.635,20.651l19.071,0c2.304,0 4.398,-0.316 6.281,-0.949c1.883,-0.63 3.488,-1.513 4.816,-2.645c1.328,-1.133 2.358,-2.495 3.09,-4.085c0.732,-1.59 1.098,-3.367 1.098,-5.326c0,-2.745 -0.688,-5.108 -2.061,-7.09c-0.955,-1.38 -2.316,-2.478 -4.086,-3.297c-1.361,-0.633 -2.558,-0.963 -2.558,-1.016c0,-0.053 1.201,-0.386 2.519,-1.109c0.996,-0.545 1.83,-1.223 2.498,-2.029c1.174,-1.416 1.912,-3.538 2.227,-6.373c0.174,-1.654 0.297,-3.19 0.363,-4.606c0.066,-1.414 0.141,-2.732 0.203,-3.826c0.029,-0.532 0.016,-0.967 0.016,-1.687c0,-1.641 -1.203,-2.688 -2.656,-2.688l-3.125,0c-1.504,0 -2.641,0.047 -3.012,2.72c-0.043,0.315 -0.092,0.649 -0.129,1.004c-0.111,1.005 -0.211,2.111 -0.303,3.334c-0.086,1.218 -0.174,2.462 -0.262,3.723c-0.222,2.574 -1.076,4.542 -2.56,5.914c-1.484,1.373 -3.732,2.058 -6.742,2.058l-5.053,0c-1.504,0 -2.721,-1.218 -2.721,-2.722l0,-13.307c0,-1.505 -1.218,-2.724 -2.724,-2.724l-4.19,0c-1.506,0 -2.724,1.219 -2.724,2.724l0,41.28c0,1.505 1.218,2.722 2.724,2.722" fill-rule="nonzero" fill="#3d647f"/>
   </g>
   <g id="g420" transform="matrix(1.3333333,0,0,-1.3333333,0,960) ">
    <path id="path422" d="m460.897051,643.124491l7.113,0c1.504,0 2.358,1.165 1.903,2.597l-3.432,10.868c-0.223,0.609 -0.434,1.33 -0.633,2.157c-0.197,0.827 -0.408,1.611 -0.629,2.353c-0.115,0.439 -0.226,0.886 -0.338,1.338c-0.183,0.742 -0.582,0.766 -0.814,0.02c-0.143,-0.459 -0.266,-0.911 -0.377,-1.358c-0.221,-0.742 -0.432,-1.526 -0.631,-2.353c-0.199,-0.827 -0.41,-1.548 -0.633,-2.157l-3.431,-10.868c-0.453,-1.432 0.398,-2.597 1.902,-2.597m1.396,29.542l4.524,0c1.5,0 3.133,-1.148 3.639,-2.563l14.906,-41.599c0.512,-1.415 -0.297,-2.564 -1.803,-2.564l-4.588,0c-1.5,0 -3.095,1.16 -3.554,2.59l-1.524,4.75c-0.461,1.43 -2.051,2.595 -3.557,2.595l-11.697,0c-1.502,0 -3.086,-1.165 -3.539,-2.601l-1.492,-4.738c-0.447,-1.436 -2.033,-2.596 -3.539,-2.596l-4.32,0c-1.504,0 -2.317,1.149 -1.815,2.564l14.727,41.597c0.504,1.417 2.131,2.565 3.632,2.565" fill-rule="nonzero" fill="#3d647f"/>
   </g>
   <g id="g424" transform="matrix(1.3333333,0,0,-1.3333333,0,960) ">
    <path id="path426" d="m495.397051,646.362281l-13.184,23.919c-0.722,1.319 -0.095,2.385 1.411,2.385l5.052,0c1.504,0 3.283,-1.081 3.975,-2.416l5.926,-11.437c0.353,-0.743 0.715,-1.495 1.095,-2.256c0.375,-0.763 0.719,-1.47 1.028,-2.124c0.176,-0.386 0.343,-0.763 0.506,-1.138c0.277,-0.634 0.808,-0.668 1.132,-0.033c0.198,0.386 0.377,0.774 0.559,1.171c0.307,0.654 0.648,1.361 1.027,2.124c0.377,0.761 0.743,1.513 1.098,2.256l5.809,11.425c0.683,1.341 2.453,2.428 3.955,2.428l4.656,0c1.506,0 2.133,-1.066 1.41,-2.385l-13.189,-23.919c-0.723,-1.316 -1.313,-3.605 -1.313,-5.11l0,-12.588c0,-1.506 -1.221,-2.724 -2.724,-2.724l-4.188,0c-1.504,0 -2.723,1.218 -2.723,2.724l0,12.588c0,1.505 -0.588,3.794 -1.318,5.11" fill-rule="nonzero" fill="#3d647f"/>
   </g>
  </g>
 </g>
</svg>