<svg width="175" height="195" xmlns="http://www.w3.org/2000/svg">
 <metadata id="metadata8">image/svg+xml</metadata>
 <defs>
  <clipPath clipPathUnits="userSpaceOnUse" id="clipPath18">
   <path d="m0,720l1280,0l0,-720l-1280,0l0,720z" id="path16"/>
  </clipPath>
  <clipPath clipPathUnits="userSpaceOnUse" id="clipPath510">
   <path d="m0,720l1280,0l0,-720l-1280,0l0,720z" id="path508"/>
  </clipPath>
  <clipPath clipPathUnits="userSpaceOnUse" id="clipPath518">
   <path d="m80.333,608.499l52.426,0l0,-23.87l-52.426,0l0,23.87z" id="path516"/>
  </clipPath>
  <clipPath clipPathUnits="userSpaceOnUse" id="clipPath534">
   <path d="m724.334,608.499l93.213,0l0,-23.87l-93.213,0l0,23.87z" id="path532"/>
  </clipPath>
 </defs>
 <g>
  <title>background</title>
  <rect fill="none" id="canvas_background" height="197" width="177" y="-1" x="-1"/>
 </g>
 <g>
  <title>Layer 1</title>
  <g id="svg_1">
   <g transform="matrix(1.3333333,0,0,-1.3333333,0,960) " id="g244">
    <path fill="#3d647f" fill-rule="nonzero" d="m120.688,602.382294l-43.031,-24.842c-6.374,-3.681 -16.707,-3.681 -23.082,0l-43.033,24.842c-6.375,3.68 -11.542,12.631 -11.542,19.992l0,49.688c0,7.358 5.167,16.312 11.542,19.992l43.033,24.843c6.375,3.682 16.708,3.682 23.082,0l43.031,-24.843c6.374,-3.68 11.541,-12.634 11.541,-19.992l0,-49.688c0,-7.361 -5.167,-16.312 -11.541,-19.992" id="path246"/>
   </g>
   <g transform="matrix(1.3333333,0,0,-1.3333333,0,960) " id="g248">
    <path fill="#ffffff" fill-rule="nonzero" d="m99.737805,687.627411c1.045,-0.571 2.892,-1.581 3.936,-2.151c0.429,-0.235 1.126,-0.235 1.555,0l3.936,2.151c0.429,0.234 0.429,0.615 0,0.85l-3.936,2.152c-0.429,0.234 -1.126,0.234 -1.555,0l-3.936,-2.152c-0.431,-0.235 -0.431,-0.616 0,-0.85" id="path250"/>
   </g>
   <g transform="matrix(1.3333333,0,0,-1.3333333,0,960) " id="g252">
    <path fill="#ffffff" fill-rule="nonzero" d="m104.850095,683.477509l0,-4.232c0,-0.49 0.348,-0.697 0.777,-0.461l3.936,2.152c0.43,0.235 0.777,0.822 0.777,1.312l0,4.232c0,0.489 -0.347,0.696 -0.777,0.461c-1.045,-0.571 -2.891,-1.58 -3.936,-2.152c-0.429,-0.234 -0.777,-0.822 -0.777,-1.312" id="path254"/>
   </g>
   <g transform="matrix(1.3333333,0,0,-1.3333333,0,960) " id="g256">
    <path fill="#ffffff" fill-rule="nonzero" d="m106.268094,677.309601c1.045,-0.571 2.891,-1.581 3.936,-2.151c0.429,-0.235 1.127,-0.235 1.555,0l3.937,2.151c0.428,0.234 0.428,0.615 0,0.85l-3.937,2.152c-0.428,0.234 -1.126,0.234 -1.555,0l-3.936,-2.152c-0.43,-0.235 -0.43,-0.616 0,-0.85" id="path258"/>
   </g>
   <g transform="matrix(1.3333333,0,0,-1.3333333,0,960) " id="g260">
    <path fill="#ffffff" fill-rule="nonzero" d="m111.380399,673.159698l0,-4.232c-0.001,-0.49 0.348,-0.697 0.778,-0.461l3.936,2.152c0.429,0.235 0.777,0.822 0.777,1.312l0,4.232c0,0.489 -0.348,0.696 -0.777,0.461c-1.045,-0.571 -2.891,-1.58 -3.936,-2.152c-0.43,-0.234 -0.778,-0.822 -0.778,-1.312" id="path262"/>
   </g>
   <g transform="matrix(1.3333333,0,0,-1.3333333,0,960) " id="g264">
    <path fill="#ffffff" fill-rule="nonzero" d="m112.518094,666.777802c1.045,-0.571 2.891,-1.581 3.936,-2.151c0.429,-0.235 1.127,-0.235 1.555,0l3.937,2.151c0.428,0.234 0.428,0.615 0,0.85l-3.937,2.152c-0.428,0.234 -1.126,0.234 -1.555,0l-3.936,-2.152c-0.43,-0.235 -0.43,-0.616 0,-0.85" id="path266"/>
   </g>
   <g transform="matrix(1.3333333,0,0,-1.3333333,0,960) " id="g268">
    <path fill="#ffffff" fill-rule="nonzero" d="m117.630399,662.627899l0,-4.232c-0.001,-0.49 0.348,-0.697 0.778,-0.461l3.936,2.152c0.429,0.235 0.777,0.822 0.777,1.312l0,4.232c0,0.489 -0.348,0.696 -0.777,0.461c-1.045,-0.571 -2.891,-1.58 -3.936,-2.152c-0.43,-0.234 -0.778,-0.822 -0.778,-1.312" id="path270"/>
   </g>
   <g transform="matrix(1.3333333,0,0,-1.3333333,0,960) " id="g272">
    <path fill="#ffffff" fill-rule="nonzero" d="m101.344205,666.777802c1.045,-0.571 2.892,-1.581 3.936,-2.151c0.429,-0.235 1.127,-0.235 1.556,0l3.936,2.151c0.429,0.234 0.429,0.615 0,0.85l-3.936,2.152c-0.429,0.234 -1.127,0.234 -1.556,0l-3.936,-2.152c-0.43,-0.235 -0.43,-0.616 0,-0.85" id="path274"/>
   </g>
   <g transform="matrix(1.3333333,0,0,-1.3333333,0,960) " id="g276">
    <path fill="#ffffff" fill-rule="nonzero" d="m106.457501,662.627899l0,-4.232c-0.001,-0.49 0.348,-0.697 0.777,-0.461l3.936,2.152c0.43,0.235 0.777,0.822 0.777,1.312l0,4.232c0,0.489 -0.347,0.696 -0.777,0.461c-1.045,-0.571 -2.891,-1.58 -3.936,-2.152c-0.429,-0.234 -0.777,-0.822 -0.777,-1.312" id="path278"/>
   </g>
   <g transform="matrix(1.3333333,0,0,-1.3333333,0,960) " id="g280">
    <path fill="#ffffff" fill-rule="nonzero" d="m95.018094,677.309601c1.045,-0.571 2.892,-1.581 3.936,-2.151c0.429,-0.235 1.127,-0.235 1.556,0l3.936,2.151c0.429,0.234 0.429,0.615 0,0.85l-3.936,2.152c-0.429,0.234 -1.127,0.234 -1.556,0l-3.936,-2.152c-0.43,-0.235 -0.43,-0.616 0,-0.85" id="path282"/>
   </g>
   <g transform="matrix(1.3333333,0,0,-1.3333333,0,960) " id="g284">
    <path fill="#ffffff" fill-rule="nonzero" d="m100.131299,673.159698l0,-4.232c-0.001,-0.49 0.348,-0.697 0.777,-0.461l3.936,2.152c0.43,0.235 0.777,0.822 0.777,1.312l0,4.232c0,0.489 -0.347,0.696 -0.777,0.461c-1.045,-0.571 -2.891,-1.58 -3.936,-2.152c-0.429,-0.234 -0.777,-0.822 -0.777,-1.312" id="path286"/>
   </g>
   <g transform="matrix(1.3333333,0,0,-1.3333333,0,960) " id="g288">
    <path fill="#ffffff" fill-rule="nonzero" d="m89.941891,666.777802c1.045,-0.571 2.891,-1.581 3.936,-2.151c0.429,-0.235 1.127,-0.235 1.555,0l3.937,2.151c0.428,0.234 0.428,0.615 0,0.85l-3.937,2.152c-0.428,0.234 -1.126,0.234 -1.555,0l-3.936,-2.152c-0.43,-0.235 -0.43,-0.616 0,-0.85" id="path290"/>
   </g>
   <g transform="matrix(1.3333333,0,0,-1.3333333,0,960) " id="g292">
    <path fill="#ffffff" fill-rule="nonzero" d="m95.054196,662.627899l0,-4.232c-0.001,-0.49 0.348,-0.697 0.778,-0.461l3.936,2.152c0.429,0.235 0.777,0.822 0.777,1.312l0,4.232c0,0.489 -0.348,0.696 -0.777,0.461c-1.045,-0.571 -2.891,-1.58 -3.936,-2.152c-0.43,-0.234 -0.778,-0.822 -0.778,-1.312" id="path294"/>
   </g>
   <g transform="matrix(1.3333333,0,0,-1.3333333,0,960) " id="g344">
    <path fill="#ffffff" fill-rule="nonzero" d="m48.098096,660.348114c2.115,1.223 5.543,1.223 7.661,0l12.443,-7.183c0.431,-0.249 0.839,-0.585 1.226,-0.96l14.191,7.757c2.909,1.589 2.909,4.166 0,5.756l-26.639,14.565c-2.907,1.59 -7.622,1.59 -10.529,0l-26.641,-14.565c-2.907,-1.59 -2.907,-4.166 0.001,-5.755c3.812,-2.084 9.198,-5.028 14.463,-7.905c0.429,0.441 0.892,0.825 1.382,1.107l12.442,7.183z" id="path346"/>
   </g>
   <g transform="matrix(1.3333333,0,0,-1.3333333,0,960) " id="g348">
    <path fill="#ffffff" fill-rule="nonzero" d="m86.316891,655.3237c-3.787,-2.071 -9.131,-4.993 -14.363,-7.854c0.051,-0.319 0.078,-0.633 0.078,-0.94l0,-14.368c0,-2.444 -1.713,-5.411 -3.83,-6.632l-12.443,-7.183c-0.403,-0.233 -0.864,-0.407 -1.343,-0.551l-0.001,-14.567c0,-3.313 2.357,-4.711 5.263,-3.121l26.64,14.57c2.907,1.589 5.265,5.565 5.265,8.878l0,28.646c0,3.314 -2.358,4.711 -5.266,3.122" id="path350"/>
   </g>
   <g transform="matrix(1.3333333,0,0,-1.3333333,0,960) " id="g352">
    <path fill="#ffffff" fill-rule="nonzero" d="m35.655797,625.529785c-2.114,1.221 -3.827,4.188 -3.827,6.632l0,14.368c0,0.259 0.029,0.526 0.066,0.794c-5.338,2.918 -10.828,5.92 -14.695,8.035c-2.908,1.589 -5.266,0.192 -5.266,-3.122l0,-28.638c0,-3.314 2.358,-7.289 5.265,-8.879l26.64,-14.569c2.906,-1.59 5.263,-0.193 5.263,3.121l-0.002,14.627c-0.353,0.126 -0.694,0.27 -1.002,0.448l-12.442,7.183z" id="path354"/>
   </g>
   <g transform="matrix(1.3333333,0,0,-1.3333333,0,960) " id="g356">
    <path fill="#ffffff" fill-rule="nonzero" d="m64.088399,630.262207c-2.338,1.278 -6.203,3.392 -8.982,4.91c-0.465,0.254 -0.908,0.496 -1.299,0.71c-1.123,0.613 -2.942,0.613 -4.065,0l-1.316,-0.72l-8.965,-4.9c-1.123,-0.613 -1.123,-1.607 0,-2.221l9.639,-5.27l0.642,-0.352c1.123,-0.614 2.942,-0.614 4.065,0l0.608,0.333l9.674,5.289c1.122,0.614 1.122,1.608 -0.001,2.221" id="path358"/>
   </g>
   <g transform="matrix(1.3333333,0,0,-1.3333333,0,960) " id="g360">
    <path fill="#ffffff" fill-rule="nonzero" d="m47.701695,639.674805c1.121,0.614 2.031,2.148 2.031,3.427l0,1.273l0,9.785c0,1.278 -0.909,1.818 -2.031,1.204l-9.735,-5.324l-0.546,-0.299c-1.123,-0.613 -2.032,-2.148 -2.032,-3.427l0,-0.9l0,-10.156c0,-1.279 0.91,-1.819 2.032,-1.205c2.279,1.247 6.008,3.285 8.768,4.795c0.544,0.297 1.064,0.581 1.513,0.827" id="path362"/>
   </g>
   <g transform="matrix(1.3333333,0,0,-1.3333333,0,960) " id="g364">
    <path fill="#ffffff" fill-rule="nonzero" d="m66.098096,649.724609l-0.604,0.33l-9.679,5.293c-1.121,0.613 -2.031,0.075 -2.031,-1.205l0.001,-9.753l0,-1.302c0,-1.279 0.911,-2.814 2.032,-3.428c0.452,-0.247 0.975,-0.533 1.523,-0.833c2.76,-1.508 6.481,-3.542 8.758,-4.788c1.121,-0.612 2.031,-0.074 2.031,1.206l0,10.133l0,0.92c0,1.279 -0.91,2.813 -2.031,3.427" id="path366"/>
   </g>
  </g>
 </g>
</svg>
