<svg width="720" height="190" xmlns="http://www.w3.org/2000/svg">
 <metadata id="metadata8">image/svg+xml</metadata>
 <defs>
  <clipPath id="clipPath18" clipPathUnits="userSpaceOnUse">
   <path id="path16" d="m0,720l1280,0l0,-720l-1280,0l0,720z"/>
  </clipPath>
  <clipPath id="clipPath510" clipPathUnits="userSpaceOnUse">
   <path id="path508" d="m0,720l1280,0l0,-720l-1280,0l0,720z"/>
  </clipPath>
  <clipPath id="clipPath518" clipPathUnits="userSpaceOnUse">
   <path id="path516" d="m80.333,608.499l52.426,0l0,-23.87l-52.426,0l0,23.87z"/>
  </clipPath>
  <clipPath id="clipPath534" clipPathUnits="userSpaceOnUse">
   <path id="path532" d="m724.334,608.499l93.213,0l0,-23.87l-93.213,0l0,23.87z"/>
  </clipPath>
 </defs>
 <g>
  <title>background</title>
  <rect x="-1" y="-1" width="722" height="192" id="canvas_background" fill="none"/>
 </g>
 <g>
  <title>Layer 1</title>
  <g id="svg_4">
   <g id="g24" transform="matrix(1.3333333,0,0,-1.3333333,0,960) ">
    <path id="path26" d="m540.000026,586.999012c0,-6.625 -5.373,-11.998 -12,-11.998l-516,0c-6.628,0 -12,5.373 -12,11.998l0,121.001c0,6.628 5.372,12 12,12l516,0c6.627,0 12,-5.372 12,-12l0,-121.001z" fill-rule="nonzero" fill="#3d647f"/>
   </g>
   <g id="g76" transform="matrix(1.3333333,0,0,-1.3333333,0,960) ">
    <path id="path78" d="m103.444306,693.579102c1.045,-0.571 2.892,-1.58 3.936,-2.151c0.429,-0.236 1.126,-0.236 1.555,0l3.936,2.151c0.429,0.234 0.429,0.615 0,0.85l-3.936,2.152c-0.429,0.234 -1.126,0.234 -1.555,0l-3.936,-2.152c-0.431,-0.235 -0.431,-0.616 0,-0.85" fill-rule="nonzero" fill="#ffffff"/>
   </g>
   <g id="g80" transform="matrix(1.3333333,0,0,-1.3333333,0,960) ">
    <path id="path82" d="m108.556606,689.428712l0,-4.231c0,-0.49 0.348,-0.697 0.777,-0.462l3.936,2.153c0.43,0.235 0.777,0.821 0.777,1.311l0,4.233c0,0.488 -0.347,0.695 -0.777,0.461c-1.045,-0.571 -2.891,-1.58 -3.936,-2.152c-0.429,-0.235 -0.777,-0.823 -0.777,-1.313" fill-rule="nonzero" fill="#ffffff"/>
   </g>
   <g id="g84" transform="matrix(1.3333333,0,0,-1.3333333,0,960) ">
    <path id="path86" d="m109.974636,683.260712c1.045,-0.57 2.891,-1.58 3.936,-2.15c0.429,-0.236 1.127,-0.236 1.555,0l3.937,2.15c0.428,0.234 0.428,0.615 0,0.851l-3.937,2.151c-0.428,0.234 -1.126,0.234 -1.555,0l-3.936,-2.151c-0.43,-0.236 -0.43,-0.617 0,-0.851" fill-rule="nonzero" fill="#ffffff"/>
   </g>
   <g id="g88" transform="matrix(1.3333333,0,0,-1.3333333,0,960) ">
    <path id="path90" d="m115.086946,679.111302l0,-4.231c-0.001,-0.491 0.348,-0.698 0.778,-0.462l3.936,2.153c0.429,0.234 0.777,0.821 0.777,1.311l0,4.232c0,0.489 -0.348,0.696 -0.777,0.461c-1.045,-0.57 -2.891,-1.58 -3.936,-2.152c-0.43,-0.235 -0.778,-0.823 -0.778,-1.312" fill-rule="nonzero" fill="#ffffff"/>
   </g>
   <g id="g92" transform="matrix(1.3333333,0,0,-1.3333333,0,960) ">
    <path id="path94" d="m116.224636,672.729492c1.045,-0.571 2.891,-1.58 3.936,-2.151c0.429,-0.236 1.127,-0.236 1.555,0l3.937,2.151c0.428,0.234 0.428,0.615 0,0.85l-3.937,2.152c-0.428,0.234 -1.126,0.234 -1.555,0l-3.936,-2.152c-0.43,-0.235 -0.43,-0.616 0,-0.85" fill-rule="nonzero" fill="#ffffff"/>
   </g>
   <g id="g96" transform="matrix(1.3333333,0,0,-1.3333333,0,960) ">
    <path id="path98" d="m121.336946,668.579102l0,-4.231c-0.001,-0.49 0.348,-0.697 0.778,-0.462l3.936,2.153c0.429,0.235 0.777,0.821 0.777,1.311l0,4.233c0,0.488 -0.348,0.695 -0.777,0.461c-1.045,-0.571 -2.891,-1.58 -3.936,-2.152c-0.43,-0.235 -0.778,-0.823 -0.778,-1.313" fill-rule="nonzero" fill="#ffffff"/>
   </g>
   <g id="g100" transform="matrix(1.3333333,0,0,-1.3333333,0,960) ">
    <path id="path102" d="m105.050686,672.729492c1.045,-0.571 2.892,-1.58 3.936,-2.151c0.429,-0.236 1.127,-0.236 1.556,0l3.936,2.151c0.429,0.234 0.429,0.615 0,0.85l-3.936,2.152c-0.429,0.234 -1.127,0.234 -1.556,0l-3.936,-2.152c-0.43,-0.235 -0.43,-0.616 0,-0.85" fill-rule="nonzero" fill="#ffffff"/>
   </g>
   <g id="g104" transform="matrix(1.3333333,0,0,-1.3333333,0,960) ">
    <path id="path106" d="m110.164036,668.579102l0,-4.231c-0.001,-0.49 0.348,-0.697 0.777,-0.462l3.936,2.153c0.43,0.235 0.777,0.821 0.777,1.311l0,4.233c0,0.488 -0.347,0.695 -0.777,0.461c-1.045,-0.571 -2.891,-1.58 -3.936,-2.152c-0.429,-0.235 -0.777,-0.823 -0.777,-1.313" fill-rule="nonzero" fill="#ffffff"/>
   </g>
   <g id="g108" transform="matrix(1.3333333,0,0,-1.3333333,0,960) ">
    <path id="path110" d="m98.724636,683.260712c1.045,-0.57 2.892,-1.58 3.936,-2.15c0.429,-0.236 1.127,-0.236 1.556,0l3.936,2.15c0.429,0.234 0.429,0.615 0,0.851l-3.936,2.151c-0.429,0.234 -1.127,0.234 -1.556,0l-3.936,-2.151c-0.43,-0.236 -0.43,-0.617 0,-0.851" fill-rule="nonzero" fill="#ffffff"/>
   </g>
   <g id="g112" transform="matrix(1.3333333,0,0,-1.3333333,0,960) ">
    <path id="path114" d="m103.837796,679.111302l0,-4.231c-0.001,-0.491 0.348,-0.698 0.777,-0.462l3.936,2.153c0.43,0.234 0.777,0.821 0.777,1.311l0,4.232c0,0.489 -0.347,0.696 -0.777,0.461c-1.045,-0.57 -2.891,-1.58 -3.936,-2.152c-0.429,-0.235 -0.777,-0.823 -0.777,-1.312" fill-rule="nonzero" fill="#ffffff"/>
   </g>
   <g id="g116" transform="matrix(1.3333333,0,0,-1.3333333,0,960) ">
    <path id="path118" d="m93.648406,672.729492c1.045,-0.571 2.891,-1.58 3.936,-2.151c0.429,-0.236 1.127,-0.236 1.555,0l3.937,2.151c0.428,0.234 0.428,0.615 0,0.85l-3.937,2.152c-0.428,0.234 -1.126,0.234 -1.555,0l-3.936,-2.152c-0.43,-0.235 -0.43,-0.616 0,-0.85" fill-rule="nonzero" fill="#ffffff"/>
   </g>
   <g id="g120" transform="matrix(1.3333333,0,0,-1.3333333,0,960) ">
    <path id="path122" d="m98.760716,668.579102l0,-4.231c-0.001,-0.49 0.34799,-0.697 0.778,-0.462l3.936,2.153c0.429,0.235 0.777,0.821 0.777,1.311l0,4.233c0,0.488 -0.348,0.695 -0.777,0.461c-1.045,-0.571 -2.891,-1.58 -3.936,-2.152c-0.43,-0.235 -0.778,-0.823 -0.778,-1.313" fill-rule="nonzero" fill="#ffffff"/>
   </g>
   <g id="g196" transform="matrix(1.3333333,0,0,-1.3333333,0,960) ">
    <path id="path198" d="m51.804596,666.299802c2.115,1.223 5.543,1.223 7.661,0l12.443,-7.183c0.431,-0.249 0.839,-0.585 1.226,-0.96l14.191,7.757c2.909,1.589 2.909,4.166 0,5.756l-26.639,14.566c-2.907,1.589 -7.622,1.589 -10.529,0l-26.641,-14.566c-2.907,-1.59 -2.907,-4.167 0.001,-5.755c3.812,-2.084 9.198,-5.027 14.463,-7.905c0.429,0.441 0.892,0.825 1.382,1.107l12.442,7.183z" fill-rule="nonzero" fill="#ffffff"/>
   </g>
   <g id="g200" transform="matrix(1.3333333,0,0,-1.3333333,0,960) ">
    <path id="path202" d="m90.023406,661.275392c-3.787,-2.071 -9.131,-4.993 -14.363,-7.854c0.051,-0.319 0.078,-0.633 0.078,-0.94l0,-14.367c0,-2.445 -1.713,-5.412 -3.83,-6.633l-12.443,-7.184c-0.403,-0.232 -0.864,-0.406 -1.343,-0.55l-0.001,-14.567c0,-3.314 2.357,-4.711 5.263,-3.121l26.64,14.569c2.907,1.589 5.265,5.566 5.265,8.878l0,28.647c0,3.314 -2.358,4.711 -5.266,3.122" fill-rule="nonzero" fill="#ffffff"/>
   </g>
   <g id="g204" transform="matrix(1.3333333,0,0,-1.3333333,0,960) ">
    <path id="path206" d="m39.362336,631.481402c-2.114,1.221 -3.827,4.188 -3.827,6.633l0,14.367c0,0.26 0.029,0.525 0.066,0.793c-5.338,2.92 -10.828,5.921 -14.695,8.035c-2.908,1.59 -5.266,0.193 -5.266,-3.121l0,-28.639c0,-3.312 2.358,-7.289 5.265,-8.879l26.64,-14.568c2.906,-1.59 5.263,-0.193 5.263,3.121l-0.002,14.627c-0.353,0.125 -0.694,0.27 -1.002,0.447l-12.442,7.184z" fill-rule="nonzero" fill="#ffffff"/>
   </g>
   <g id="g208" transform="matrix(1.3333333,0,0,-1.3333333,0,960) ">
    <path id="path210" d="m67.794896,636.213802c-2.338,1.277 -6.203,3.391 -8.982,4.91c-0.46501,0.254 -0.908,0.496 -1.299,0.709c-1.123,0.613 -2.942,0.613 -4.06501,0l-1.316,-0.719l-8.965,-4.9c-1.123,-0.613 -1.123,-1.607 0,-2.221l9.639,-5.271l0.642,-0.352c1.12301,-0.613 2.94201,-0.613 4.06501,0l0.60799,0.334l9.674,5.289c1.122,0.614 1.122,1.608 -0.00099,2.221" fill-rule="nonzero" fill="#ffffff"/>
   </g>
   <g id="g212" transform="matrix(1.3333333,0,0,-1.3333333,0,960) ">
    <path id="path214" d="m51.408236,645.625912c1.121,0.615 2.031,2.148 2.031,3.428l0,1.273l0,9.784c0,1.279 -0.909,1.818 -2.031,1.204l-9.735,-5.324l-0.546,-0.299c-1.123,-0.613 -2.032,-2.148 -2.032,-3.427l0,-0.899l0,-10.158c0,-1.277 0.91,-1.818 2.032,-1.203c2.279,1.246 6.008,3.283 8.768,4.795c0.544,0.297 1.064,0.58 1.513,0.826" fill-rule="nonzero" fill="#ffffff"/>
   </g>
   <g id="g216" transform="matrix(1.3333333,0,0,-1.3333333,0,960) ">
    <path id="path218" d="m69.804596,655.676692l-0.604,0.33l-9.679,5.293c-1.121,0.613 -2.031,0.074 -2.031,-1.205l0.001,-9.754l0,-1.303c0,-1.277 0.911,-2.812 2.032,-3.427c0.452,-0.247 0.975,-0.534 1.523,-0.832c2.76,-1.508 6.481,-3.543 8.758,-4.788c1.121,-0.613 2.031,-0.074 2.031,1.206l0,10.132l0,0.92c0,1.28 -0.91,2.813 -2.031,3.428" fill-rule="nonzero" fill="#ffffff"/>
   </g>
   <g id="g428" transform="matrix(1.3333333,0,0,-1.3333333,0,960) ">
    <path id="path430" d="m152.831996,670.962892l4.194,0c1.499,0 2.723,-1.218 2.723,-2.723l0,-13.178c0,-1.506 0.851,-1.854 1.903,-0.78l14.459,14.738c1.05,1.075 3.125,1.943 4.629,1.943l6.516,0c1.505,0 1.861,-0.863 0.803,-1.931l-14.764,-14.83c-1.059,-1.066 -1.217,-2.926 -0.352,-4.154l16.663,-23.588c0.868,-1.228 0.352,-2.223 -1.153,-2.223l-5.85,0c-1.505,0 -3.423,1 -4.287,2.229l-12.158,17.365c-0.861,1.233 -2.426,1.369 -3.489,0.309l-0.995,-0.989c-1.063,-1.06 -1.925,-3.14 -1.925,-4.644l0,-11.547c0,-1.506 -1.224,-2.723 -2.723,-2.723l-4.194,0c-1.502,0 -2.723,1.217 -2.723,2.723l0,41.28c0,1.505 1.221,2.723 2.723,2.723" fill-rule="nonzero" fill="#ffffff"/>
   </g>
   <g id="g432" transform="matrix(1.3333333,0,0,-1.3333333,0,960) ">
    <path id="path434" d="m198.551726,627.534102c-3.146,2.723 -4.72,6.639 -4.72,11.732l0,28.974c0,1.505 1.221,2.723 2.723,2.723l4.191,0c1.502,0 2.723,-1.218 2.723,-2.723l0,-28.974c0,-2.441 0.674,-4.423 2.023,-5.945c1.354,-1.527 3.647,-2.287 6.881,-2.287c3.057,0 5.315,0.781 6.778,2.35c1.463,1.57 2.191,3.574 2.191,6.015l0,28.841c0,1.505 1.217,2.723 2.723,2.723l4.191,0c1.506,0 2.723,-1.218 2.723,-2.723l0,-28.974c0,-5.009 -1.539,-8.898 -4.619,-11.664c-3.077,-2.769 -7.675,-4.152 -13.787,-4.152c-6.203,0 -10.877,1.361 -14.021,4.084" fill-rule="nonzero" fill="#ffffff"/>
   </g>
   <g id="g436" transform="matrix(1.3333333,0,0,-1.3333333,0,960) ">
    <path id="path438" d="m250.246006,632.077102l8.375,0c2.346,0 4.174,0.578 5.48,1.732c1.305,1.155 1.959,2.692 1.959,4.606c0,2.225 -0.73,3.898 -2.193,5.033c-1.459,1.133 -3.299,1.699 -5.512,1.699l-8.109,0c-1.504,0 -2.723,-1.216 -2.723,-2.72l0,-7.627c0,-1.506 1.219,-2.723 2.723,-2.723m12.826,21.502c1.285,0.959 1.926,2.352 1.926,4.182c0,0.839 -0.143,1.589 -0.426,2.249c-0.502,1.171 -2.359,2.575 -3.781,2.938c-0.785,0.202 -1.662,0.303 -2.635,0.303l-7.91,0c-1.504,0 -2.723,-1.217 -2.723,-2.723l0,-5.664c0,-1.506 1.219,-2.723 2.723,-2.723l7.711,0c2.125,0 3.828,0.479 5.115,1.438m-22.463,17.384l18.543,0c2.567,0 4.817,-0.295 6.744,-0.882c1.926,-0.588 3.508,-1.428 4.75,-2.516c2.526,-2.223 3.789,-5.143 3.789,-8.758c0,-2.398 -0.675,-4.369 -2.027,-5.914c-0.81,-0.927 -1.783,-1.709 -2.92,-2.347c-1.312,-0.737 -2.496,-1.127 -2.496,-1.184c0,-0.053 1.197,-0.39 2.535,-1.08c1.52,-0.781 2.809,-1.848 3.877,-3.199c1.615,-2.051 2.428,-4.508 2.428,-7.385c0,-2.225 -0.346,-4.105 -1.033,-5.654c-0.682,-1.547 -1.74,-2.908 -3.157,-4.084c-1.373,-1.176 -3.078,-2.09 -5.115,-2.744c-2.037,-0.655 -4.32,-0.979 -6.845,-0.979l-19.073,0c-1.504,0 -2.722,1.217 -2.722,2.723l0,41.28c0,1.505 1.218,2.723 2.722,2.723" fill-rule="nonzero" fill="#ffffff"/>
   </g>
   <g id="g440" transform="matrix(1.3333333,0,0,-1.3333333,0,960) ">
    <path id="path442" d="m284.199186,670.962892l29.508,0c1.504,0 2.722,-1.218 2.722,-2.723l0,-2.526c0,-1.505 -1.218,-2.723 -2.722,-2.723l-19.871,0c-1.504,0 -2.723,-1.218 -2.723,-2.722l0,-5.014c0,-1.504 1.219,-2.723 2.723,-2.723l16.748,0c1.506,0 2.722,-1.218 2.722,-2.722l0,-2.33c0,-1.506 -1.216,-2.723 -2.722,-2.723l-16.748,0c-1.504,0 -2.723,-1.219 -2.723,-2.725l0,-7.164c0,-1.504 1.219,-2.722 2.723,-2.722l20.068,0c1.504,0 2.721,-1.219 2.721,-2.723l0,-2.463c0,-1.506 -1.217,-2.723 -2.721,-2.723l-29.705,0c-1.504,0 -2.723,1.217 -2.723,2.723l0,41.28c0,1.505 1.219,2.723 2.723,2.723" fill-rule="nonzero" fill="#ffffff"/>
   </g>
   <g id="g444" transform="matrix(1.3333333,0,0,-1.3333333,0,960) ">
    <path id="path446" d="m325.699186,627.209902c-2.852,2.17 -4.607,5.09 -5.266,8.764c-0.265,1.478 0.936,2.703 2.442,2.703l3.988,0c1.506,0 2.822,-1.235 3.33,-2.649c0.531,-1.484 1.352,-2.611 2.449,-3.392c1.684,-1.203 4.231,-1.799 7.641,-1.799c1.24,0 2.416,0.107 3.523,0.324c1.108,0.219 2.082,0.57 2.924,1.047c0.842,0.481 1.518,1.102 2.026,1.863c0.509,0.76 0.763,1.686 0.763,2.776c0,1.133 -0.275,2.07 -0.83,2.812c-0.552,0.74 -1.34,1.364 -2.359,1.864c-1.018,0.5 -2.248,0.935 -3.686,1.306c-1.439,0.369 -3.068,0.75 -4.882,1.143c-2.127,0.478 -4.178,1.013 -6.149,1.601c-1.971,0.588 -3.699,1.383 -5.184,2.385c-1.482,1.002 -2.679,2.287 -3.585,3.857c-0.911,1.569 -1.364,3.571 -1.364,6.012c0,2.308 0.453,4.334 1.364,6.079c0.906,1.742 2.169,3.202 3.787,4.377c1.617,1.178 3.529,2.058 5.748,2.649c2.213,0.587 4.652,0.88 7.308,0.88c5.362,0 9.668,-1.243 12.924,-3.726c2.609,-1.989 4.285,-4.706 5.029,-8.149c0.321,-1.472 -0.834,-2.698 -2.336,-2.698l-3.789,0c-1.505,0 -2.793,1.253 -3.42,2.619c-0.5,1.094 -1.242,1.985 -2.23,2.676c-1.682,1.175 -3.766,1.763 -6.244,1.763c-2.615,0 -4.695,-0.5 -6.248,-1.503c-1.551,-1.002 -2.324,-2.332 -2.324,-3.986c0,-0.959 0.211,-1.756 0.63,-2.385c0.42,-0.633 1.063,-1.19 1.928,-1.668c0.867,-0.479 1.936,-0.893 3.223,-1.242c1.285,-0.348 2.81,-0.717 4.586,-1.112c2.435,-0.521 4.726,-1.099 6.875,-1.73c2.15,-0.633 4.031,-1.471 5.648,-2.516c1.617,-1.045 2.891,-2.375 3.823,-3.986c0.929,-1.615 1.394,-3.684 1.394,-6.211c0,-2.35 -0.465,-4.451 -1.394,-6.307c-0.932,-1.851 -2.215,-3.398 -3.854,-4.638c-1.641,-1.239 -3.59,-2.192 -5.848,-2.844c-2.261,-0.65 -4.718,-0.98 -7.377,-0.98c-6.466,0 -11.463,1.341 -14.984,4.021" fill-rule="nonzero" fill="#ffffff"/>
   </g>
   <g id="g448" transform="matrix(1.3333333,0,0,-1.3333333,0,960) ">
    <path id="path450" d="m377.626926,648.873992l7.246,0c2.524,0 4.44,0.629 5.744,1.895c1.307,1.263 1.961,2.962 1.961,5.097c0,2.222 -0.666,3.921 -1.992,5.098c-1.33,1.176 -3.189,1.764 -5.58,1.764l-7.379,0c-1.504,0 -2.721,-1.217 -2.721,-2.723l0,-8.408c0,-1.506 1.217,-2.723 2.721,-2.723m-9.969,22.089l18.145,0c2.791,0 5.203,-0.382 7.238,-1.143c2.039,-0.763 3.768,-1.843 5.186,-3.236c1.328,-1.351 2.369,-2.92 3.125,-4.704c0.752,-1.787 1.13,-3.772 1.13,-5.949c0,-2.221 -0.367,-4.237 -1.101,-6.045c-0.731,-1.809 -1.77,-3.356 -3.121,-4.641c-1.354,-1.283 -3.012,-2.287 -4.983,-3.006c-1.972,-0.717 -4.199,-1.078 -6.679,-1.078l-8.971,0c-1.504,0 -2.721,-1.219 -2.721,-2.725l0,-11.476c0,-1.506 -1.218,-2.723 -2.724,-2.723l-4.524,0c-1.502,0 -2.722,1.217 -2.722,2.723l0,41.28c0,1.505 1.22,2.723 2.722,2.723" fill-rule="nonzero" fill="#ffffff"/>
   </g>
   <g id="g452" transform="matrix(1.3333333,0,0,-1.3333333,0,960) ">
    <path id="path454" d="m419.621006,650.311492l7.51,0c2.658,0 4.627,0.598 5.914,1.799c1.285,1.195 1.926,2.732 1.926,4.605c0,1.917 -0.62,3.496 -1.86,4.739c-1.24,1.242 -3.144,1.861 -5.713,1.861l-7.777,0c-1.504,0 -2.721,-1.219 -2.721,-2.723l0,-7.558c0,-1.504 1.217,-2.723 2.721,-2.723m-9.635,20.651l19.071,0c2.304,0 4.398,-0.315 6.281,-0.949c1.883,-0.63 3.488,-1.513 4.816,-2.645c1.328,-1.133 2.358,-2.494 3.09,-4.084c0.732,-1.59 1.098,-3.368 1.098,-5.327c0,-2.746 -0.688,-5.109 -2.061,-7.089c-0.955,-1.381 -2.316,-2.479 -4.086,-3.299c-1.361,-0.633 -2.558,-0.961 -2.558,-1.016c0,-0.053 1.201,-0.385 2.519,-1.109c0.996,-0.545 1.83,-1.223 2.498,-2.028c1.174,-1.416 1.912,-3.539 2.227,-6.373c0.174,-1.654 0.297,-3.191 0.363,-4.605c0.066,-1.416 0.141,-2.732 0.203,-3.826c0.031,-0.533 0.016,-0.969 0.016,-1.688c0,-1.64 -1.203,-2.687 -2.656,-2.687l-3.125,0c-1.502,0 -2.641,0.047 -3.012,2.719c-0.043,0.314 -0.09,0.648 -0.129,1.003c-0.111,1.006 -0.211,2.112 -0.303,3.334c-0.086,1.219 -0.174,2.463 -0.262,3.723c-0.222,2.574 -1.076,4.543 -2.56,5.914c-1.484,1.373 -3.732,2.059 -6.742,2.059l-5.053,0c-1.504,0 -2.721,-1.217 -2.721,-2.723l0,-13.307c0,-1.505 -1.218,-2.722 -2.724,-2.722l-4.19,0c-1.506,0 -2.724,1.217 -2.724,2.722l0,41.281c0,1.505 1.218,2.722 2.724,2.722" fill-rule="nonzero" fill="#ffffff"/>
   </g>
   <g id="g456" transform="matrix(1.3333333,0,0,-1.3333333,0,960) ">
    <path id="path458" d="m465.269496,641.420902l7.113,0c1.504,0 2.358,1.164 1.903,2.596l-3.432,10.869c-0.223,0.609 -0.434,1.33 -0.633,2.156c-0.197,0.828 -0.408,1.611 -0.629,2.354c-0.115,0.439 -0.226,0.886 -0.338,1.338c-0.183,0.742 -0.582,0.765 -0.814,0.021c-0.143,-0.461 -0.266,-0.912 -0.377,-1.359c-0.221,-0.743 -0.432,-1.526 -0.631,-2.354c-0.199,-0.826 -0.41,-1.547 -0.633,-2.156l-3.431,-10.869c-0.453,-1.432 0.398,-2.596 1.902,-2.596m1.396,29.542l4.524,0c1.5,0 3.133,-1.147 3.639,-2.563l14.906,-41.6c0.512,-1.414 -0.297,-2.563 -1.803,-2.563l-4.588,0c-1.5,0 -3.095,1.161 -3.554,2.59l-1.524,4.75c-0.461,1.43 -2.051,2.596 -3.557,2.596l-11.697,0c-1.502,0 -3.086,-1.166 -3.539,-2.602l-1.492,-4.738c-0.447,-1.435 -2.033,-2.596 -3.539,-2.596l-4.32,0c-1.504,0 -2.317,1.149 -1.815,2.563l14.727,41.598c0.504,1.418 2.131,2.565 3.632,2.565" fill-rule="nonzero" fill="#ffffff"/>
   </g>
   <g id="g460" transform="matrix(1.3333333,0,0,-1.3333333,0,960) ">
    <path id="path462" d="m499.769496,644.659102l-13.184,23.919c-0.722,1.319 -0.095,2.385 1.411,2.385l5.052,0c1.504,0 3.283,-1.081 3.975,-2.417l5.926,-11.438c0.353,-0.742 0.715,-1.494 1.095,-2.254c0.375,-0.763 0.719,-1.47 1.028,-2.125c0.176,-0.386 0.343,-0.763 0.506,-1.138c0.277,-0.633 0.808,-0.668 1.132,-0.032c0.198,0.385 0.377,0.774 0.559,1.17c0.307,0.655 0.648,1.362 1.027,2.125c0.377,0.76 0.743,1.512 1.098,2.254l5.809,11.427c0.683,1.341 2.453,2.428 3.955,2.428l4.656,0c1.506,0 2.133,-1.066 1.41,-2.385l-13.189,-23.919c-0.723,-1.316 -1.313,-3.605 -1.313,-5.111l0,-12.588c0,-1.506 -1.221,-2.723 -2.724,-2.723l-4.188,0c-1.504,0 -2.723,1.217 -2.723,2.723l0,12.588c0,1.506 -0.588,3.795 -1.318,5.111" fill-rule="nonzero" fill="#ffffff"/>
   </g>
  </g>
 </g>
</svg>